solid Untitled-5b218800
facet normal 1.0 0.0 0.0
  outer loop
    vertex 27.999999999999993 22.0 0.0
    vertex 27.999999999999993 2.000000000000594 3.0000000000039835
    vertex 27.999999999999993 1.9999999999999962 3.983202656598905e-12
  endloop
endfacet
facet normal 1.0 0.0 0.0
  outer loop
    vertex 27.999999999999993 2.000000000000594 3.0000000000039835
    vertex 27.999999999999993 22.0 0.0
    vertex 27.999999999999993 22.0000000000002 0.9999999999999996
  endloop
endfacet
facet normal 0.13052619222005077 1.9744253122336542e-13 0.9914448613738105
  outer loop
    vertex 2.2820898134839838 4.342748383123762e-13 2.1750000000043865
    vertex 2.023270768381461 2.000000000000439 2.209074173714921
    vertex 2.023270768381461 4.39914771277472e-13 2.2090741737153183
  endloop
endfacet
facet normal 0.13052619222005077 1.9744253122336542e-13 0.9914448613738105
  outer loop
    vertex 2.023270768381461 2.000000000000439 2.209074173714921
    vertex 2.2820898134839838 4.342748383123762e-13 2.1750000000043865
    vertex 2.2820898134839838 2.0000000000004334 2.175000000003989
  endloop
endfacet
facet normal -0.13052619222005074 1.9744253122336542e-13 0.9914448613738105
  outer loop
    vertex 2.5409088585865063 4.39914771277472e-13 2.2090741737153183
    vertex 2.2820898134839838 2.0000000000004334 2.175000000003989
    vertex 2.2820898134839838 4.342748383123762e-13 2.1750000000043865
  endloop
endfacet
facet normal -0.13052619222005074 1.9744253122336542e-13 0.9914448613738105
  outer loop
    vertex 2.2820898134839838 2.0000000000004334 2.175000000003989
    vertex 2.5409088585865063 4.39914771277472e-13 2.2090741737153183
    vertex 2.5409088585865063 2.000000000000439 2.209074173714921
  endloop
endfacet
facet normal -0.38268343236509283 1.8398714900970312e-13 0.9238795325112854
  outer loop
    vertex 2.782089813483983 4.596545366553073e-13 2.3089745962199486
    vertex 2.5409088585865063 2.000000000000439 2.209074173714921
    vertex 2.5409088585865063 4.39914771277472e-13 2.2090741737153183
  endloop
endfacet
facet normal -0.38268343236509283 1.8398714900970312e-13 0.9238795325112854
  outer loop
    vertex 2.5409088585865063 2.000000000000439 2.209074173714921
    vertex 2.782089813483983 4.596545366553073e-13 2.3089745962199486
    vertex 2.782089813483983 2.0000000000004587 2.3089745962195494
  endloop
endfacet
facet normal -0.6087614290087153 1.5799334664417077e-13 0.7933533402912393
  outer loop
    vertex 2.989196594670533 4.906741679633341e-13 2.467893218817838
    vertex 2.782089813483983 2.0000000000004587 2.3089745962195494
    vertex 2.782089813483983 4.596545366553073e-13 2.3089745962199486
  endloop
endfacet
facet normal -0.6087614290087153 1.5799334664417077e-13 0.7933533402912393
  outer loop
    vertex 2.782089813483983 2.0000000000004587 2.3089745962195494
    vertex 2.989196594670533 4.906741679633341e-13 2.467893218817838
    vertex 2.989196594670533 2.00000000000049 2.4678932188174407
  endloop
endfacet
facet normal -0.7933533402912472 1.2123255880118358e-13 0.608761429008705
  outer loop
    vertex 3.1481152172684173 5.329736652015526e-13 2.6750000000043856
    vertex 2.989196594670533 2.00000000000049 2.4678932188174407
    vertex 2.989196594670533 4.906741679633341e-13 2.467893218817838
  endloop
endfacet
facet normal -0.7933533402912472 1.2123255880118358e-13 0.608761429008705
  outer loop
    vertex 2.989196594670533 2.00000000000049 2.4678932188174407
    vertex 3.1481152172684173 5.329736652015526e-13 2.6750000000043856
    vertex 3.1481152172684173 2.000000000000532 2.675000000003988
  endloop
endfacet
facet normal -0.9238795325112744 7.620997242218463e-14 0.3826834323651195
  outer loop
    vertex 3.248015639773056 5.809130954048669e-13 2.916180954901865
    vertex 3.1481152172684173 2.000000000000532 2.675000000003988
    vertex 3.1481152172684173 5.329736652015526e-13 2.6750000000043856
  endloop
endfacet
facet normal -0.9238795325112744 7.620997242218463e-14 0.3826834323651195
  outer loop
    vertex 3.1481152172684173 2.000000000000532 2.675000000003988
    vertex 3.248015639773056 5.809130954048669e-13 2.916180954901865
    vertex 3.248015639773056 2.00000000000058 2.9161809549014674
  endloop
endfacet
facet normal -0.9914448613738132 2.5994344162163734e-14 0.1305261922200307
  outer loop
    vertex 3.282089813483982 6.31672492090729e-13 3.1750000000043848
    vertex 3.248015639773056 2.00000000000058 2.9161809549014674
    vertex 3.248015639773056 5.809130954048669e-13 2.916180954901865
  endloop
endfacet
facet normal -0.9914448613738132 2.5994344162163734e-14 0.1305261922200307
  outer loop
    vertex 3.248015639773056 2.00000000000058 2.9161809549014674
    vertex 3.282089813483982 6.31672492090729e-13 3.1750000000043848
    vertex 3.282089813483982 2.0000000000006306 3.1750000000039873
  endloop
endfacet
facet normal -0.9914448613738077 -2.599380236553764e-14 -0.13052619222007267
  outer loop
    vertex 3.2480156397730444 6.824318887765911e-13 3.433819045106907
    vertex 3.282089813483982 2.0000000000006306 3.1750000000039873
    vertex 3.282089813483982 6.31672492090729e-13 3.1750000000043848
  endloop
endfacet
facet normal -0.9914448613738077 -2.599380236553764e-14 -0.13052619222007267
  outer loop
    vertex 3.282089813483982 2.0000000000006306 3.1750000000039873
    vertex 3.2480156397730444 6.824318887765911e-13 3.433819045106907
    vertex 3.2480156397730444 2.0000000000006817 3.4338190451065085
  endloop
endfacet
facet normal -0.9238795325112895 -7.620997242217737e-14 -0.38268343236508306
  outer loop
    vertex 3.1481152172684173 7.331912854624534e-13 3.675000000004385
    vertex 3.2480156397730444 2.0000000000006817 3.4338190451065085
    vertex 3.2480156397730444 6.824318887765911e-13 3.433819045106907
  endloop
endfacet
facet normal -0.9238795325112895 -7.620997242217737e-14 -0.38268343236508306
  outer loop
    vertex 3.2480156397730444 2.0000000000006817 3.4338190451065085
    vertex 3.1481152172684173 7.331912854624534e-13 3.675000000004385
    vertex 3.1481152172684173 2.0000000000007323 3.675000000003987
  endloop
endfacet
facet normal -0.7933533402912467 -1.2123255880118373e-13 -0.6087614290087057
  outer loop
    vertex 2.989196594670533 7.726708162181239e-13 3.882106781190932
    vertex 3.1481152172684173 2.0000000000007323 3.675000000003987
    vertex 3.1481152172684173 7.331912854624534e-13 3.675000000004385
  endloop
endfacet
facet normal -0.7933533402912467 -1.2123255880118373e-13 -0.6087614290087057
  outer loop
    vertex 3.1481152172684173 2.0000000000007323 3.675000000003987
    vertex 2.989196594670533 7.726708162181239e-13 3.882106781190932
    vertex 2.989196594670533 2.000000000000772 3.882106781190534
  endloop
endfacet
facet normal -0.6087614290087161 -1.5799334664417065e-13 -0.7933533402912387
  outer loop
    vertex 2.989196594670533 2.000000000000772 3.882106781190534
    vertex 2.782089813483983 8.036904475261508e-13 4.041025403788823
    vertex 2.782089813483983 2.000000000000803 4.041025403788425
  endloop
endfacet
facet normal -0.6087614290087161 -1.5799334664417065e-13 -0.7933533402912387
  outer loop
    vertex 2.782089813483983 8.036904475261508e-13 4.041025403788823
    vertex 2.989196594670533 2.000000000000772 3.882106781190534
    vertex 2.989196594670533 7.726708162181239e-13 3.882106781190932
  endloop
endfacet
facet normal -0.3826834323650905 -1.8398714900970335e-13 -0.9238795325112865
  outer loop
    vertex 2.782089813483983 2.000000000000803 4.041025403788425
    vertex 2.5409088585865063 8.23430212903986e-13 4.140925826293452
    vertex 2.5409088585865063 2.0000000000008225 4.140925826293054
  endloop
endfacet
facet normal -0.3826834323650905 -1.8398714900970335e-13 -0.9238795325112865
  outer loop
    vertex 2.5409088585865063 8.23430212903986e-13 4.140925826293452
    vertex 2.782089813483983 2.000000000000803 4.041025403788425
    vertex 2.782089813483983 8.036904475261508e-13 4.041025403788823
  endloop
endfacet
facet normal -0.13052619222005077 -1.9744253122336542e-13 -0.9914448613738105
  outer loop
    vertex 2.5409088585865063 2.0000000000008225 4.140925826293054
    vertex 2.2820898134839838 8.318901123516298e-13 4.175000000004384
    vertex 2.2820898134839838 2.000000000000831 4.175000000003985
  endloop
endfacet
facet normal -0.13052619222005077 -1.9744253122336542e-13 -0.9914448613738105
  outer loop
    vertex 2.2820898134839838 8.318901123516298e-13 4.175000000004384
    vertex 2.5409088585865063 2.0000000000008225 4.140925826293054
    vertex 2.5409088585865063 8.23430212903986e-13 4.140925826293452
  endloop
endfacet
facet normal 0.13052619222005074 -1.9744253122336542e-13 -0.9914448613738105
  outer loop
    vertex 2.2820898134839838 2.000000000000831 4.175000000003985
    vertex 2.023270768381461 8.23430212903986e-13 4.140925826293452
    vertex 2.023270768381461 2.0000000000008225 4.140925826293054
  endloop
endfacet
facet normal 0.13052619222005074 -1.9744253122336542e-13 -0.9914448613738105
  outer loop
    vertex 2.023270768381461 8.23430212903986e-13 4.140925826293452
    vertex 2.2820898134839838 2.000000000000831 4.175000000003985
    vertex 2.2820898134839838 8.318901123516298e-13 4.175000000004384
  endloop
endfacet
facet normal 0.3826834323650951 -1.8398714900970297e-13 -0.9238795325112846
  outer loop
    vertex 2.023270768381461 2.0000000000008225 4.140925826293054
    vertex 1.7820898134839847 8.036904475261508e-13 4.041025403788822
    vertex 1.7820898134839847 2.000000000000803 4.0410254037884235
  endloop
endfacet
facet normal 0.3826834323650951 -1.8398714900970297e-13 -0.9238795325112846
  outer loop
    vertex 1.7820898134839847 8.036904475261508e-13 4.041025403788822
    vertex 2.023270768381461 2.0000000000008225 4.140925826293054
    vertex 2.023270768381461 8.23430212903986e-13 4.140925826293452
  endloop
endfacet
facet normal 0.6087614290087145 -1.5799681500584343e-13 -0.79335334029124
  outer loop
    vertex 1.7820898134839847 2.000000000000803 4.0410254037884235
    vertex 1.5749830322974345 7.726708162181239e-13 3.8821067811909313
    vertex 1.5749830322974345 2.000000000000772 3.882106781190533
  endloop
endfacet
facet normal 0.6087614290087145 -1.5799681500584343e-13 -0.79335334029124
  outer loop
    vertex 1.5749830322974345 7.726708162181239e-13 3.8821067811909313
    vertex 1.7820898134839847 2.000000000000803 4.0410254037884235
    vertex 1.7820898134839847 8.036904475261508e-13 4.041025403788822
  endloop
endfacet
facet normal 0.7933533402912467 -1.2123255880118373e-13 -0.6087614290087057
  outer loop
    vertex 1.4160644096995503 2.0000000000007323 3.6750000000039864
    vertex 1.5749830322974345 7.726708162181239e-13 3.8821067811909313
    vertex 1.4160644096995503 7.331912854624534e-13 3.6750000000043848
  endloop
endfacet
facet normal 0.7933533402912467 -1.2123255880118373e-13 -0.6087614290087057
  outer loop
    vertex 1.5749830322974345 7.726708162181239e-13 3.8821067811909313
    vertex 1.4160644096995503 2.0000000000007323 3.6750000000039864
    vertex 1.5749830322974345 2.000000000000772 3.882106781190533
  endloop
endfacet
facet normal 0.9238795325112747 -7.620997242218455e-14 -0.3826834323651191
  outer loop
    vertex 1.3161639871949116 2.0000000000006817 3.433819045106507
    vertex 1.4160644096995503 7.331912854624534e-13 3.6750000000043848
    vertex 1.3161639871949116 6.824318887765911e-13 3.4338190451069055
  endloop
endfacet
facet normal 0.9238795325112747 -7.620997242218455e-14 -0.3826834323651191
  outer loop
    vertex 1.4160644096995503 7.331912854624534e-13 3.6750000000043848
    vertex 1.3161639871949116 2.0000000000006817 3.433819045106507
    vertex 1.4160644096995503 2.0000000000007323 3.6750000000039864
  endloop
endfacet
facet normal 0.9914448613738132 -2.5993260568894875e-14 -0.1305261922200309
  outer loop
    vertex 1.2820898134839855 2.0000000000006306 3.1750000000039873
    vertex 1.3161639871949116 6.824318887765911e-13 3.4338190451069055
    vertex 1.2820898134839855 6.31672492090729e-13 3.1750000000043848
  endloop
endfacet
facet normal 0.9914448613738132 -2.5993260568894875e-14 -0.1305261922200309
  outer loop
    vertex 1.3161639871949116 6.824318887765911e-13 3.4338190451069055
    vertex 1.2820898134839855 2.0000000000006306 3.1750000000039873
    vertex 1.3161639871949116 2.0000000000006817 3.433819045106507
  endloop
endfacet
facet normal 0.9914448613738077 2.5993802365537714e-14 0.13052619222007303
  outer loop
    vertex 1.316163987194923 2.00000000000058 2.916180954901466
    vertex 1.2820898134839855 6.31672492090729e-13 3.1750000000043848
    vertex 1.316163987194923 5.809130954048669e-13 2.916180954901865
  endloop
endfacet
facet normal 0.9914448613738077 2.5993802365537714e-14 0.13052619222007303
  outer loop
    vertex 1.2820898134839855 6.31672492090729e-13 3.1750000000043848
    vertex 1.316163987194923 2.00000000000058 2.916180954901466
    vertex 1.2820898134839855 2.0000000000006306 3.1750000000039873
  endloop
endfacet
facet normal 0.9238795325112897 7.620997242217726e-14 0.3826834323650825
  outer loop
    vertex 1.4160644096995503 2.000000000000532 2.675000000003988
    vertex 1.316163987194923 5.809130954048669e-13 2.916180954901865
    vertex 1.4160644096995503 5.329736652015526e-13 2.6750000000043856
  endloop
endfacet
facet normal 0.9238795325112897 7.620997242217726e-14 0.3826834323650825
  outer loop
    vertex 1.316163987194923 5.809130954048669e-13 2.916180954901865
    vertex 1.4160644096995503 2.000000000000532 2.675000000003988
    vertex 1.316163987194923 2.00000000000058 2.916180954901466
  endloop
endfacet
facet normal 0.7933533402912472 1.2123255880118358e-13 0.608761429008705
  outer loop
    vertex 1.5749830322974345 2.00000000000049 2.4678932188174407
    vertex 1.4160644096995503 5.329736652015526e-13 2.6750000000043856
    vertex 1.5749830322974345 4.906741679633341e-13 2.467893218817838
  endloop
endfacet
facet normal 0.7933533402912472 1.2123255880118358e-13 0.608761429008705
  outer loop
    vertex 1.4160644096995503 5.329736652015526e-13 2.6750000000043856
    vertex 1.5749830322974345 2.00000000000049 2.4678932188174407
    vertex 1.4160644096995503 2.000000000000532 2.675000000003988
  endloop
endfacet
facet normal 0.6087614290087144 1.5799334664417092e-13 0.79335334029124
  outer loop
    vertex 1.7820898134839847 4.596545366553073e-13 2.3089745962199486
    vertex 1.5749830322974345 2.00000000000049 2.4678932188174407
    vertex 1.5749830322974345 4.906741679633341e-13 2.467893218817838
  endloop
endfacet
facet normal 0.6087614290087144 1.5799334664417092e-13 0.79335334029124
  outer loop
    vertex 1.5749830322974345 2.00000000000049 2.4678932188174407
    vertex 1.7820898134839847 4.596545366553073e-13 2.3089745962199486
    vertex 1.7820898134839847 2.0000000000004587 2.3089745962195494
  endloop
endfacet
facet normal 0.38268343236509283 1.8398714900970312e-13 0.9238795325112854
  outer loop
    vertex 2.023270768381461 4.39914771277472e-13 2.2090741737153183
    vertex 1.7820898134839847 2.0000000000004587 2.3089745962195494
    vertex 1.7820898134839847 4.596545366553073e-13 2.3089745962199486
  endloop
endfacet
facet normal 0.38268343236509283 1.8398714900970312e-13 0.9238795325112854
  outer loop
    vertex 1.7820898134839847 2.0000000000004587 2.3089745962195494
    vertex 2.023270768381461 4.39914771277472e-13 2.2090741737153183
    vertex 2.023270768381461 2.000000000000439 2.209074173714921
  endloop
endfacet
facet normal -1.0 0.0 0.0
  outer loop
    vertex 0.0 1.263344984181458e-12 6.350000000004389
    vertex 0.0 1.9999999999999962 3.983202656598905e-12
    vertex 0.0 0.0 4.380817930638158e-12
  endloop
endfacet
facet normal -1.0 0.0 0.0
  outer loop
    vertex 0.0 1.9999999999999962 3.983202656598905e-12
    vertex 0.0 1.263344984181458e-12 6.350000000004389
    vertex 0.0 2.00000000000126 6.350000000003991
  endloop
endfacet
facet normal -1.1456927537598586e-17 1.0 -1.9896088108381583e-13
  outer loop
    vertex 0.0 1.9999999999999962 3.983202656598905e-12
    vertex 2.023270768381461 2.000000000000439 2.209074173714921
    vertex 17.99999999999999 1.9999999999999962 3.983202656598905e-12
  endloop
endfacet
facet normal -1.1456927537598586e-17 1.0 -1.9896088108381583e-13
  outer loop
    vertex 2.023270768381461 2.000000000000439 2.209074173714921
    vertex 0.0 1.9999999999999962 3.983202656598905e-12
    vertex 1.7820898134839847 2.0000000000004587 2.3089745962195494
  endloop
endfacet
facet normal -1.1456927537598586e-17 1.0 -1.9896088108381583e-13
  outer loop
    vertex 1.7820898134839847 2.0000000000004587 2.3089745962195494
    vertex 0.0 1.9999999999999962 3.983202656598905e-12
    vertex 1.5749830322974345 2.00000000000049 2.4678932188174407
  endloop
endfacet
facet normal -1.1456927537598586e-17 1.0 -1.9896088108381583e-13
  outer loop
    vertex 1.5749830322974345 2.00000000000049 2.4678932188174407
    vertex 0.0 1.9999999999999962 3.983202656598905e-12
    vertex 1.4160644096995503 2.000000000000532 2.675000000003988
  endloop
endfacet
facet normal -1.1456927537598586e-17 1.0 -1.9896088108381583e-13
  outer loop
    vertex 1.4160644096995503 2.000000000000532 2.675000000003988
    vertex 0.0 1.9999999999999962 3.983202656598905e-12
    vertex 1.316163987194923 2.00000000000058 2.916180954901466
  endloop
endfacet
facet normal -1.1456927537598586e-17 1.0 -1.9896088108381583e-13
  outer loop
    vertex 1.316163987194923 2.00000000000058 2.916180954901466
    vertex 0.0 1.9999999999999962 3.983202656598905e-12
    vertex 0.0 2.00000000000126 6.350000000003991
  endloop
endfacet
facet normal -1.1456927537598586e-17 1.0 -1.9896088108381583e-13
  outer loop
    vertex 17.99999999999999 1.9999999999999962 3.983202656598905e-12
    vertex 2.023270768381461 2.000000000000439 2.209074173714921
    vertex 2.2820898134839838 2.0000000000004334 2.175000000003989
  endloop
endfacet
facet normal -1.1456927537598586e-17 1.0 -1.9896088108381583e-13
  outer loop
    vertex 1.316163987194923 2.00000000000058 2.916180954901466
    vertex 0.0 2.00000000000126 6.350000000003991
    vertex 1.2820898134839855 2.0000000000006306 3.1750000000039873
  endloop
endfacet
facet normal -1.1456927537598586e-17 1.0 -1.9896088108381583e-13
  outer loop
    vertex 1.2820898134839855 2.0000000000006306 3.1750000000039873
    vertex 0.0 2.00000000000126 6.350000000003991
    vertex 1.3161639871949116 2.0000000000006817 3.433819045106507
  endloop
endfacet
facet normal -1.1456927537598586e-17 1.0 -1.9896088108381583e-13
  outer loop
    vertex 1.3161639871949116 2.0000000000006817 3.433819045106507
    vertex 0.0 2.00000000000126 6.350000000003991
    vertex 1.4160644096995503 2.0000000000007323 3.6750000000039864
  endloop
endfacet
facet normal -1.1456927537598586e-17 1.0 -1.9896088108381583e-13
  outer loop
    vertex 1.4160644096995503 2.0000000000007323 3.6750000000039864
    vertex 0.0 2.00000000000126 6.350000000003991
    vertex 1.5749830322974345 2.000000000000772 3.882106781190533
  endloop
endfacet
facet normal -1.1456927537598586e-17 1.0 -1.9896088108381583e-13
  outer loop
    vertex 1.5749830322974345 2.000000000000772 3.882106781190533
    vertex 0.0 2.00000000000126 6.350000000003991
    vertex 1.7820898134839847 2.000000000000803 4.0410254037884235
  endloop
endfacet
facet normal -1.1456927537598586e-17 1.0 -1.9896088108381583e-13
  outer loop
    vertex 1.7820898134839847 2.000000000000803 4.0410254037884235
    vertex 0.0 2.00000000000126 6.350000000003991
    vertex 2.023270768381461 2.0000000000008225 4.140925826293054
  endloop
endfacet
facet normal -1.1456927537598586e-17 1.0 -1.9896088108381583e-13
  outer loop
    vertex 2.023270768381461 2.0000000000008225 4.140925826293054
    vertex 0.0 2.00000000000126 6.350000000003991
    vertex 2.2820898134839838 2.000000000000831 4.175000000003985
  endloop
endfacet
facet normal -1.1456927537598586e-17 1.0 -1.9896088108381583e-13
  outer loop
    vertex 2.2820898134839838 2.000000000000831 4.175000000003985
    vertex 0.0 2.00000000000126 6.350000000003991
    vertex 5.457089813483983 2.000000000000831 4.175000000003985
  endloop
endfacet
facet normal -1.1456927537598586e-17 1.0 -1.9896088108381583e-13
  outer loop
    vertex 17.99999999999999 1.9999999999999962 3.983202656598905e-12
    vertex 5.457089813483983 2.0000000000004334 2.175000000003989
    vertex 17.99999999999999 2.000000000000594 3.0000000000039835
  endloop
endfacet
facet normal -1.1456927537598586e-17 1.0 -1.9896088108381583e-13
  outer loop
    vertex 5.457089813483983 2.0000000000004334 2.175000000003989
    vertex 17.99999999999999 1.9999999999999962 3.983202656598905e-12
    vertex 2.2820898134839838 2.0000000000004334 2.175000000003989
  endloop
endfacet
facet normal -1.1456927537598586e-17 1.0 -1.9896088108381583e-13
  outer loop
    vertex 17.99999999999999 2.000000000000594 3.0000000000039835
    vertex 5.457089813483983 2.0000000000004334 2.175000000003989
    vertex 5.7159088585865065 2.000000000000439 2.209074173714921
  endloop
endfacet
facet normal -1.1456927537598586e-17 1.0 -1.9896088108381583e-13
  outer loop
    vertex 17.99999999999999 2.000000000000594 3.0000000000039835
    vertex 5.7159088585865065 2.000000000000439 2.209074173714921
    vertex 5.957089813483982 2.0000000000004587 2.3089745962195494
  endloop
endfacet
facet normal -1.1456927537598586e-17 1.0 -1.9896088108381583e-13
  outer loop
    vertex 17.99999999999999 2.000000000000594 3.0000000000039835
    vertex 5.957089813483982 2.0000000000004587 2.3089745962195494
    vertex 6.164196594670533 2.00000000000049 2.4678932188174407
  endloop
endfacet
facet normal -1.1456927537598586e-17 1.0 -1.9896088108381583e-13
  outer loop
    vertex 17.99999999999999 2.000000000000594 3.0000000000039835
    vertex 6.164196594670533 2.00000000000049 2.4678932188174407
    vertex 6.323115217268417 2.000000000000532 2.675000000003988
  endloop
endfacet
facet normal -1.1456927537598586e-17 1.0 -1.9896088108381583e-13
  outer loop
    vertex 17.99999999999999 2.000000000000594 3.0000000000039835
    vertex 6.323115217268417 2.000000000000532 2.675000000003988
    vertex 6.423015639773055 2.00000000000058 2.9161809549014674
  endloop
endfacet
facet normal -1.1456927537598586e-17 1.0 -1.9896088108381583e-13
  outer loop
    vertex 17.99999999999999 2.000000000000594 3.0000000000039835
    vertex 6.423015639773055 2.00000000000058 2.9161809549014674
    vertex 6.457089813483981 2.0000000000006306 3.1750000000039873
  endloop
endfacet
facet normal -1.1456927537598586e-17 1.0 -1.9896088108381583e-13
  outer loop
    vertex 17.99999999999999 2.000000000000594 3.0000000000039835
    vertex 6.457089813483981 2.0000000000006306 3.1750000000039873
    vertex 27.999999999999993 2.000000000000594 3.0000000000039835
  endloop
endfacet
facet normal -1.1456927537598586e-17 1.0 -1.9896088108381583e-13
  outer loop
    vertex 27.999999999999993 2.000000000000594 3.0000000000039835
    vertex 6.457089813483981 2.0000000000006306 3.1750000000039873
    vertex 27.999999999999993 2.00000000000126 6.350000000003991
  endloop
endfacet
facet normal -1.1456927537598586e-17 1.0 -1.9896088108381583e-13
  outer loop
    vertex 27.999999999999993 2.00000000000126 6.350000000003991
    vertex 6.457089813483981 2.0000000000006306 3.1750000000039873
    vertex 6.423015639773045 2.0000000000006817 3.4338190451065085
  endloop
endfacet
facet normal -1.1456927537598586e-17 1.0 -1.9896088108381583e-13
  outer loop
    vertex 27.999999999999993 2.00000000000126 6.350000000003991
    vertex 6.423015639773045 2.0000000000006817 3.4338190451065085
    vertex 6.323115217268417 2.0000000000007323 3.675000000003987
  endloop
endfacet
facet normal -1.1456927537598586e-17 1.0 -1.9896088108381583e-13
  outer loop
    vertex 27.999999999999993 2.00000000000126 6.350000000003991
    vertex 6.323115217268417 2.0000000000007323 3.675000000003987
    vertex 6.164196594670533 2.000000000000772 3.882106781190534
  endloop
endfacet
facet normal -1.1456927537598586e-17 1.0 -1.9896088108381583e-13
  outer loop
    vertex 27.999999999999993 2.00000000000126 6.350000000003991
    vertex 6.164196594670533 2.000000000000772 3.882106781190534
    vertex 5.957089813483982 2.000000000000803 4.041025403788425
  endloop
endfacet
facet normal -1.1456927537598586e-17 1.0 -1.9896088108381583e-13
  outer loop
    vertex 27.999999999999993 2.00000000000126 6.350000000003991
    vertex 5.957089813483982 2.000000000000803 4.041025403788425
    vertex 5.7159088585865065 2.0000000000008225 4.140925826293054
  endloop
endfacet
facet normal -1.1456927537598586e-17 1.0 -1.9896088108381583e-13
  outer loop
    vertex 27.999999999999993 2.00000000000126 6.350000000003991
    vertex 5.7159088585865065 2.0000000000008225 4.140925826293054
    vertex 5.457089813483983 2.000000000000831 4.175000000003985
  endloop
endfacet
facet normal -1.1456927537598586e-17 1.0 -1.9896088108381583e-13
  outer loop
    vertex 27.999999999999993 2.00000000000126 6.350000000003991
    vertex 5.457089813483983 2.000000000000831 4.175000000003985
    vertex 0.0 2.00000000000126 6.350000000003991
  endloop
endfacet
facet normal -1.1456927537598586e-17 1.0 -1.9896088108381583e-13
  outer loop
    vertex 2.5409088585865063 2.000000000000439 2.209074173714921
    vertex 5.457089813483983 2.0000000000004334 2.175000000003989
    vertex 2.2820898134839838 2.0000000000004334 2.175000000003989
  endloop
endfacet
facet normal -1.1456927537598586e-17 1.0 -1.9896088108381583e-13
  outer loop
    vertex 5.457089813483983 2.0000000000004334 2.175000000003989
    vertex 2.5409088585865063 2.000000000000439 2.209074173714921
    vertex 5.198270768381461 2.000000000000439 2.209074173714921
  endloop
endfacet
facet normal -1.1456927537598586e-17 1.0 -1.9896088108381583e-13
  outer loop
    vertex 5.198270768381461 2.000000000000439 2.209074173714921
    vertex 2.5409088585865063 2.000000000000439 2.209074173714921
    vertex 2.782089813483983 2.0000000000004587 2.3089745962195494
  endloop
endfacet
facet normal -1.1456927537598586e-17 1.0 -1.9896088108381583e-13
  outer loop
    vertex 5.198270768381461 2.000000000000439 2.209074173714921
    vertex 2.782089813483983 2.0000000000004587 2.3089745962195494
    vertex 4.957089813483984 2.0000000000004587 2.3089745962195494
  endloop
endfacet
facet normal -1.1456927537598586e-17 1.0 -1.9896088108381583e-13
  outer loop
    vertex 4.957089813483984 2.0000000000004587 2.3089745962195494
    vertex 2.782089813483983 2.0000000000004587 2.3089745962195494
    vertex 2.989196594670533 2.00000000000049 2.4678932188174407
  endloop
endfacet
facet normal -1.1456927537598586e-17 1.0 -1.9896088108381583e-13
  outer loop
    vertex 4.957089813483984 2.0000000000004587 2.3089745962195494
    vertex 2.989196594670533 2.00000000000049 2.4678932188174407
    vertex 4.749983032297434 2.00000000000049 2.4678932188174407
  endloop
endfacet
facet normal -1.1456927537598586e-17 1.0 -1.9896088108381583e-13
  outer loop
    vertex 4.749983032297434 2.00000000000049 2.4678932188174407
    vertex 2.989196594670533 2.00000000000049 2.4678932188174407
    vertex 3.1481152172684173 2.000000000000532 2.675000000003988
  endloop
endfacet
facet normal -1.1456927537598586e-17 1.0 -1.9896088108381583e-13
  outer loop
    vertex 4.749983032297434 2.00000000000049 2.4678932188174407
    vertex 3.1481152172684173 2.000000000000532 2.675000000003988
    vertex 4.59106440969955 2.000000000000532 2.675000000003988
  endloop
endfacet
facet normal -1.1456927537598586e-17 1.0 -1.9896088108381583e-13
  outer loop
    vertex 4.59106440969955 2.000000000000532 2.675000000003988
    vertex 3.1481152172684173 2.000000000000532 2.675000000003988
    vertex 3.248015639773056 2.00000000000058 2.9161809549014674
  endloop
endfacet
facet normal -1.1456927537598586e-17 1.0 -1.9896088108381583e-13
  outer loop
    vertex 4.59106440969955 2.000000000000532 2.675000000003988
    vertex 3.248015639773056 2.00000000000058 2.9161809549014674
    vertex 4.4911639871949225 2.00000000000058 2.916180954901466
  endloop
endfacet
facet normal -1.1456927537598586e-17 1.0 -1.9896088108381583e-13
  outer loop
    vertex 4.4911639871949225 2.00000000000058 2.916180954901466
    vertex 3.248015639773056 2.00000000000058 2.9161809549014674
    vertex 4.457089813483986 2.0000000000006306 3.1750000000039873
  endloop
endfacet
facet normal -1.1456927537598586e-17 1.0 -1.9896088108381583e-13
  outer loop
    vertex 4.457089813483986 2.0000000000006306 3.1750000000039873
    vertex 3.248015639773056 2.00000000000058 2.9161809549014674
    vertex 3.282089813483982 2.0000000000006306 3.1750000000039873
  endloop
endfacet
facet normal -1.1456927537598586e-17 1.0 -1.9896088108381583e-13
  outer loop
    vertex 4.457089813483986 2.0000000000006306 3.1750000000039873
    vertex 3.282089813483982 2.0000000000006306 3.1750000000039873
    vertex 3.2480156397730444 2.0000000000006817 3.4338190451065085
  endloop
endfacet
facet normal -1.1456927537598586e-17 1.0 -1.9896088108381583e-13
  outer loop
    vertex 4.457089813483986 2.0000000000006306 3.1750000000039873
    vertex 3.2480156397730444 2.0000000000006817 3.4338190451065085
    vertex 4.491163987194912 2.0000000000006817 3.433819045106507
  endloop
endfacet
facet normal -1.1456927537598586e-17 1.0 -1.9896088108381583e-13
  outer loop
    vertex 4.491163987194912 2.0000000000006817 3.433819045106507
    vertex 3.2480156397730444 2.0000000000006817 3.4338190451065085
    vertex 4.59106440969955 2.0000000000007323 3.6750000000039864
  endloop
endfacet
facet normal -1.1456927537598586e-17 1.0 -1.9896088108381583e-13
  outer loop
    vertex 4.59106440969955 2.0000000000007323 3.6750000000039864
    vertex 3.2480156397730444 2.0000000000006817 3.4338190451065085
    vertex 3.1481152172684173 2.0000000000007323 3.675000000003987
  endloop
endfacet
facet normal -1.1456927537598586e-17 1.0 -1.9896088108381583e-13
  outer loop
    vertex 4.59106440969955 2.0000000000007323 3.6750000000039864
    vertex 3.1481152172684173 2.0000000000007323 3.675000000003987
    vertex 4.749983032297434 2.000000000000772 3.882106781190533
  endloop
endfacet
facet normal -1.1456927537598586e-17 1.0 -1.9896088108381583e-13
  outer loop
    vertex 4.749983032297434 2.000000000000772 3.882106781190533
    vertex 3.1481152172684173 2.0000000000007323 3.675000000003987
    vertex 2.989196594670533 2.000000000000772 3.882106781190534
  endloop
endfacet
facet normal -1.1456927537598586e-17 1.0 -1.9896088108381583e-13
  outer loop
    vertex 4.749983032297434 2.000000000000772 3.882106781190533
    vertex 2.989196594670533 2.000000000000772 3.882106781190534
    vertex 4.957089813483984 2.000000000000803 4.0410254037884235
  endloop
endfacet
facet normal -1.1456927537598586e-17 1.0 -1.9896088108381583e-13
  outer loop
    vertex 4.957089813483984 2.000000000000803 4.0410254037884235
    vertex 2.989196594670533 2.000000000000772 3.882106781190534
    vertex 2.782089813483983 2.000000000000803 4.041025403788425
  endloop
endfacet
facet normal -1.1456927537598586e-17 1.0 -1.9896088108381583e-13
  outer loop
    vertex 4.957089813483984 2.000000000000803 4.0410254037884235
    vertex 2.782089813483983 2.000000000000803 4.041025403788425
    vertex 5.198270768381461 2.0000000000008225 4.140925826293054
  endloop
endfacet
facet normal -1.1456927537598586e-17 1.0 -1.9896088108381583e-13
  outer loop
    vertex 5.198270768381461 2.0000000000008225 4.140925826293054
    vertex 2.782089813483983 2.000000000000803 4.041025403788425
    vertex 2.5409088585865063 2.0000000000008225 4.140925826293054
  endloop
endfacet
facet normal -1.1456927537598586e-17 1.0 -1.9896088108381583e-13
  outer loop
    vertex 5.198270768381461 2.0000000000008225 4.140925826293054
    vertex 2.5409088585865063 2.0000000000008225 4.140925826293054
    vertex 2.2820898134839838 2.000000000000831 4.175000000003985
  endloop
endfacet
facet normal -1.1456927537598586e-17 1.0 -1.9896088108381583e-13
  outer loop
    vertex 5.198270768381461 2.0000000000008225 4.140925826293054
    vertex 2.2820898134839838 2.000000000000831 4.175000000003985
    vertex 5.457089813483983 2.000000000000831 4.175000000003985
  endloop
endfacet
facet normal 0.0 1.9880763701962714e-13 1.0
  outer loop
    vertex 27.999999999999993 1.263344984181458e-12 6.350000000004389
    vertex 0.0 2.00000000000126 6.350000000003991
    vertex 0.0 1.263344984181458e-12 6.350000000004389
  endloop
endfacet
facet normal 0.0 1.9880763701962714e-13 1.0
  outer loop
    vertex 0.0 2.00000000000126 6.350000000003991
    vertex 27.999999999999993 1.263344984181458e-12 6.350000000004389
    vertex 27.999999999999993 2.00000000000126 6.350000000003991
  endloop
endfacet
facet normal 1.0 0.0 0.0
  outer loop
    vertex 27.999999999999993 1.9999999999999962 3.983202656598905e-12
    vertex 27.999999999999993 1.263344984181458e-12 6.350000000004389
    vertex 27.999999999999993 0.0 4.380817930638158e-12
  endloop
endfacet
facet normal 1.0 0.0 0.0
  outer loop
    vertex 27.999999999999993 1.263344984181458e-12 6.350000000004389
    vertex 27.999999999999993 1.9999999999999962 3.983202656598905e-12
    vertex 27.999999999999993 2.00000000000126 6.350000000003991
  endloop
endfacet
facet normal 1.0 0.0 0.0
  outer loop
    vertex 27.999999999999993 2.00000000000126 6.350000000003991
    vertex 27.999999999999993 1.9999999999999962 3.983202656598905e-12
    vertex 27.999999999999993 2.000000000000594 3.0000000000039835
  endloop
endfacet
facet normal 0.0 -1.0 1.9895196601282777e-13
  outer loop
    vertex 27.999999999999993 1.263344984181458e-12 6.350000000004389
    vertex 0.0 0.0 4.380817930638158e-12
    vertex 27.999999999999993 0.0 4.380817930638158e-12
  endloop
endfacet
facet normal 0.0 -1.0 1.9895196601282777e-13
  outer loop
    vertex 0.0 0.0 4.380817930638158e-12
    vertex 27.999999999999993 1.263344984181458e-12 6.350000000004389
    vertex 5.7159088585865065 4.39914771277472e-13 2.2090741737153183
  endloop
endfacet
facet normal 0.0 -1.0 1.9895196601282777e-13
  outer loop
    vertex 0.0 0.0 4.380817930638158e-12
    vertex 5.7159088585865065 4.39914771277472e-13 2.2090741737153183
    vertex 5.457089813483983 4.342748383123762e-13 2.1750000000043865
  endloop
endfacet
facet normal 0.0 -1.0 1.9895196601282777e-13
  outer loop
    vertex 5.7159088585865065 4.39914771277472e-13 2.2090741737153183
    vertex 27.999999999999993 1.263344984181458e-12 6.350000000004389
    vertex 5.957089813483982 4.596545366553073e-13 2.3089745962199486
  endloop
endfacet
facet normal 0.0 -1.0 1.9895196601282777e-13
  outer loop
    vertex 5.957089813483982 4.596545366553073e-13 2.3089745962199486
    vertex 27.999999999999993 1.263344984181458e-12 6.350000000004389
    vertex 6.164196594670533 4.906741679633341e-13 2.467893218817838
  endloop
endfacet
facet normal 0.0 -1.0 1.9895196601282777e-13
  outer loop
    vertex 6.164196594670533 4.906741679633341e-13 2.467893218817838
    vertex 27.999999999999993 1.263344984181458e-12 6.350000000004389
    vertex 6.323115217268417 5.329736652015526e-13 2.6750000000043856
  endloop
endfacet
facet normal 0.0 -1.0 1.9895196601282777e-13
  outer loop
    vertex 6.323115217268417 5.329736652015526e-13 2.6750000000043856
    vertex 27.999999999999993 1.263344984181458e-12 6.350000000004389
    vertex 6.423015639773055 5.809130954048669e-13 2.916180954901865
  endloop
endfacet
facet normal 0.0 -1.0 1.9895196601282777e-13
  outer loop
    vertex 6.423015639773055 5.809130954048669e-13 2.916180954901865
    vertex 27.999999999999993 1.263344984181458e-12 6.350000000004389
    vertex 6.457089813483981 6.31672492090729e-13 3.1750000000043848
  endloop
endfacet
facet normal 0.0 -1.0 1.9895196601282777e-13
  outer loop
    vertex 6.457089813483981 6.31672492090729e-13 3.1750000000043848
    vertex 27.999999999999993 1.263344984181458e-12 6.350000000004389
    vertex 6.423015639773045 6.824318887765911e-13 3.433819045106907
  endloop
endfacet
facet normal 0.0 -1.0 1.9895196601282777e-13
  outer loop
    vertex 6.423015639773045 6.824318887765911e-13 3.433819045106907
    vertex 27.999999999999993 1.263344984181458e-12 6.350000000004389
    vertex 6.323115217268417 7.331912854624534e-13 3.675000000004385
  endloop
endfacet
facet normal 0.0 -1.0 1.9895196601282777e-13
  outer loop
    vertex 6.323115217268417 7.331912854624534e-13 3.675000000004385
    vertex 27.999999999999993 1.263344984181458e-12 6.350000000004389
    vertex 6.164196594670533 7.726708162181239e-13 3.882106781190932
  endloop
endfacet
facet normal 0.0 -1.0 1.9895196601282777e-13
  outer loop
    vertex 6.164196594670533 7.726708162181239e-13 3.882106781190932
    vertex 27.999999999999993 1.263344984181458e-12 6.350000000004389
    vertex 5.957089813483982 8.036904475261508e-13 4.041025403788823
  endloop
endfacet
facet normal 0.0 -1.0 1.9895196601282777e-13
  outer loop
    vertex 5.957089813483982 8.036904475261508e-13 4.041025403788823
    vertex 27.999999999999993 1.263344984181458e-12 6.350000000004389
    vertex 5.7159088585865065 8.23430212903986e-13 4.140925826293452
  endloop
endfacet
facet normal 0.0 -1.0 1.9895196601282777e-13
  outer loop
    vertex 5.7159088585865065 8.23430212903986e-13 4.140925826293452
    vertex 27.999999999999993 1.263344984181458e-12 6.350000000004389
    vertex 5.457089813483983 8.318901123516298e-13 4.175000000004384
  endloop
endfacet
facet normal 0.0 -1.0 1.9895196601282777e-13
  outer loop
    vertex 5.457089813483983 8.318901123516298e-13 4.175000000004384
    vertex 27.999999999999993 1.263344984181458e-12 6.350000000004389
    vertex 2.2820898134839838 8.318901123516298e-13 4.175000000004384
  endloop
endfacet
facet normal 0.0 -1.0 1.9895196601282777e-13
  outer loop
    vertex 0.0 0.0 4.380817930638158e-12
    vertex 1.316163987194923 5.809130954048669e-13 2.916180954901865
    vertex 0.0 1.263344984181458e-12 6.350000000004389
  endloop
endfacet
facet normal 0.0 -1.0 1.9895196601282777e-13
  outer loop
    vertex 1.316163987194923 5.809130954048669e-13 2.916180954901865
    vertex 0.0 0.0 4.380817930638158e-12
    vertex 1.4160644096995503 5.329736652015526e-13 2.6750000000043856
  endloop
endfacet
facet normal 0.0 -1.0 1.9895196601282777e-13
  outer loop
    vertex 1.4160644096995503 5.329736652015526e-13 2.6750000000043856
    vertex 0.0 0.0 4.380817930638158e-12
    vertex 1.5749830322974345 4.906741679633341e-13 2.467893218817838
  endloop
endfacet
facet normal 0.0 -1.0 1.9895196601282777e-13
  outer loop
    vertex 1.5749830322974345 4.906741679633341e-13 2.467893218817838
    vertex 0.0 0.0 4.380817930638158e-12
    vertex 1.7820898134839847 4.596545366553073e-13 2.3089745962199486
  endloop
endfacet
facet normal 0.0 -1.0 1.9895196601282777e-13
  outer loop
    vertex 1.7820898134839847 4.596545366553073e-13 2.3089745962199486
    vertex 0.0 0.0 4.380817930638158e-12
    vertex 2.023270768381461 4.39914771277472e-13 2.2090741737153183
  endloop
endfacet
facet normal 0.0 -1.0 1.9895196601282777e-13
  outer loop
    vertex 2.023270768381461 4.39914771277472e-13 2.2090741737153183
    vertex 0.0 0.0 4.380817930638158e-12
    vertex 2.2820898134839838 4.342748383123762e-13 2.1750000000043865
  endloop
endfacet
facet normal 0.0 -1.0 1.9895196601282777e-13
  outer loop
    vertex 2.2820898134839838 4.342748383123762e-13 2.1750000000043865
    vertex 0.0 0.0 4.380817930638158e-12
    vertex 5.457089813483983 4.342748383123762e-13 2.1750000000043865
  endloop
endfacet
facet normal 0.0 -1.0 1.9895196601282777e-13
  outer loop
    vertex 0.0 1.263344984181458e-12 6.350000000004389
    vertex 1.316163987194923 5.809130954048669e-13 2.916180954901865
    vertex 1.2820898134839855 6.31672492090729e-13 3.1750000000043848
  endloop
endfacet
facet normal 0.0 -1.0 1.9895196601282777e-13
  outer loop
    vertex 0.0 1.263344984181458e-12 6.350000000004389
    vertex 1.2820898134839855 6.31672492090729e-13 3.1750000000043848
    vertex 1.3161639871949116 6.824318887765911e-13 3.4338190451069055
  endloop
endfacet
facet normal 0.0 -1.0 1.9895196601282777e-13
  outer loop
    vertex 0.0 1.263344984181458e-12 6.350000000004389
    vertex 1.3161639871949116 6.824318887765911e-13 3.4338190451069055
    vertex 1.4160644096995503 7.331912854624534e-13 3.6750000000043848
  endloop
endfacet
facet normal 0.0 -1.0 1.9895196601282777e-13
  outer loop
    vertex 0.0 1.263344984181458e-12 6.350000000004389
    vertex 1.4160644096995503 7.331912854624534e-13 3.6750000000043848
    vertex 1.5749830322974345 7.726708162181239e-13 3.8821067811909313
  endloop
endfacet
facet normal 0.0 -1.0 1.9895196601282777e-13
  outer loop
    vertex 0.0 1.263344984181458e-12 6.350000000004389
    vertex 1.5749830322974345 7.726708162181239e-13 3.8821067811909313
    vertex 1.7820898134839847 8.036904475261508e-13 4.041025403788822
  endloop
endfacet
facet normal 0.0 -1.0 1.9895196601282777e-13
  outer loop
    vertex 0.0 1.263344984181458e-12 6.350000000004389
    vertex 1.7820898134839847 8.036904475261508e-13 4.041025403788822
    vertex 2.023270768381461 8.23430212903986e-13 4.140925826293452
  endloop
endfacet
facet normal 0.0 -1.0 1.9895196601282777e-13
  outer loop
    vertex 0.0 1.263344984181458e-12 6.350000000004389
    vertex 2.023270768381461 8.23430212903986e-13 4.140925826293452
    vertex 2.2820898134839838 8.318901123516298e-13 4.175000000004384
  endloop
endfacet
facet normal 0.0 -1.0 1.9895196601282777e-13
  outer loop
    vertex 0.0 1.263344984181458e-12 6.350000000004389
    vertex 2.2820898134839838 8.318901123516298e-13 4.175000000004384
    vertex 27.999999999999993 1.263344984181458e-12 6.350000000004389
  endloop
endfacet
facet normal 0.0 -1.0 1.9895196601282777e-13
  outer loop
    vertex 5.198270768381461 4.39914771277472e-13 2.2090741737153183
    vertex 2.2820898134839838 4.342748383123762e-13 2.1750000000043865
    vertex 5.457089813483983 4.342748383123762e-13 2.1750000000043865
  endloop
endfacet
facet normal 0.0 -1.0 1.9895196601282777e-13
  outer loop
    vertex 2.2820898134839838 4.342748383123762e-13 2.1750000000043865
    vertex 5.198270768381461 4.39914771277472e-13 2.2090741737153183
    vertex 2.5409088585865063 4.39914771277472e-13 2.2090741737153183
  endloop
endfacet
facet normal 0.0 -1.0 1.9895196601282777e-13
  outer loop
    vertex 2.5409088585865063 4.39914771277472e-13 2.2090741737153183
    vertex 5.198270768381461 4.39914771277472e-13 2.2090741737153183
    vertex 4.957089813483984 4.596545366553073e-13 2.3089745962199486
  endloop
endfacet
facet normal 0.0 -1.0 1.9895196601282777e-13
  outer loop
    vertex 2.5409088585865063 4.39914771277472e-13 2.2090741737153183
    vertex 4.957089813483984 4.596545366553073e-13 2.3089745962199486
    vertex 2.782089813483983 4.596545366553073e-13 2.3089745962199486
  endloop
endfacet
facet normal 0.0 -1.0 1.9895196601282777e-13
  outer loop
    vertex 2.782089813483983 4.596545366553073e-13 2.3089745962199486
    vertex 4.957089813483984 4.596545366553073e-13 2.3089745962199486
    vertex 4.749983032297434 4.906741679633341e-13 2.467893218817838
  endloop
endfacet
facet normal 0.0 -1.0 1.9895196601282777e-13
  outer loop
    vertex 2.782089813483983 4.596545366553073e-13 2.3089745962199486
    vertex 4.749983032297434 4.906741679633341e-13 2.467893218817838
    vertex 2.989196594670533 4.906741679633341e-13 2.467893218817838
  endloop
endfacet
facet normal 0.0 -1.0 1.9895196601282777e-13
  outer loop
    vertex 2.989196594670533 4.906741679633341e-13 2.467893218817838
    vertex 4.749983032297434 4.906741679633341e-13 2.467893218817838
    vertex 4.59106440969955 5.329736652015526e-13 2.6750000000043856
  endloop
endfacet
facet normal 0.0 -1.0 1.9895196601282777e-13
  outer loop
    vertex 2.989196594670533 4.906741679633341e-13 2.467893218817838
    vertex 4.59106440969955 5.329736652015526e-13 2.6750000000043856
    vertex 3.1481152172684173 5.329736652015526e-13 2.6750000000043856
  endloop
endfacet
facet normal 0.0 -1.0 1.9895196601282777e-13
  outer loop
    vertex 3.1481152172684173 5.329736652015526e-13 2.6750000000043856
    vertex 4.59106440969955 5.329736652015526e-13 2.6750000000043856
    vertex 4.4911639871949225 5.809130954048669e-13 2.916180954901865
  endloop
endfacet
facet normal 0.0 -1.0 1.9895196601282777e-13
  outer loop
    vertex 3.1481152172684173 5.329736652015526e-13 2.6750000000043856
    vertex 4.4911639871949225 5.809130954048669e-13 2.916180954901865
    vertex 3.248015639773056 5.809130954048669e-13 2.916180954901865
  endloop
endfacet
facet normal 0.0 -1.0 1.9895196601282777e-13
  outer loop
    vertex 3.248015639773056 5.809130954048669e-13 2.916180954901865
    vertex 4.4911639871949225 5.809130954048669e-13 2.916180954901865
    vertex 4.457089813483986 6.31672492090729e-13 3.1750000000043848
  endloop
endfacet
facet normal 0.0 -1.0 1.9895196601282777e-13
  outer loop
    vertex 3.248015639773056 5.809130954048669e-13 2.916180954901865
    vertex 4.457089813483986 6.31672492090729e-13 3.1750000000043848
    vertex 3.282089813483982 6.31672492090729e-13 3.1750000000043848
  endloop
endfacet
facet normal 0.0 -1.0 1.9895196601282777e-13
  outer loop
    vertex 3.282089813483982 6.31672492090729e-13 3.1750000000043848
    vertex 4.457089813483986 6.31672492090729e-13 3.1750000000043848
    vertex 4.491163987194912 6.824318887765911e-13 3.4338190451069055
  endloop
endfacet
facet normal 0.0 -1.0 1.9895196601282777e-13
  outer loop
    vertex 3.282089813483982 6.31672492090729e-13 3.1750000000043848
    vertex 4.491163987194912 6.824318887765911e-13 3.4338190451069055
    vertex 3.2480156397730444 6.824318887765911e-13 3.433819045106907
  endloop
endfacet
facet normal 0.0 -1.0 1.9895196601282777e-13
  outer loop
    vertex 3.2480156397730444 6.824318887765911e-13 3.433819045106907
    vertex 4.491163987194912 6.824318887765911e-13 3.4338190451069055
    vertex 4.59106440969955 7.331912854624534e-13 3.6750000000043848
  endloop
endfacet
facet normal 0.0 -1.0 1.9895196601282777e-13
  outer loop
    vertex 3.2480156397730444 6.824318887765911e-13 3.433819045106907
    vertex 4.59106440969955 7.331912854624534e-13 3.6750000000043848
    vertex 3.1481152172684173 7.331912854624534e-13 3.675000000004385
  endloop
endfacet
facet normal 0.0 -1.0 1.9895196601282777e-13
  outer loop
    vertex 3.1481152172684173 7.331912854624534e-13 3.675000000004385
    vertex 4.59106440969955 7.331912854624534e-13 3.6750000000043848
    vertex 4.749983032297434 7.726708162181239e-13 3.8821067811909313
  endloop
endfacet
facet normal 0.0 -1.0 1.9895196601282777e-13
  outer loop
    vertex 3.1481152172684173 7.331912854624534e-13 3.675000000004385
    vertex 4.749983032297434 7.726708162181239e-13 3.8821067811909313
    vertex 2.989196594670533 7.726708162181239e-13 3.882106781190932
  endloop
endfacet
facet normal 0.0 -1.0 1.9895196601282777e-13
  outer loop
    vertex 2.989196594670533 7.726708162181239e-13 3.882106781190932
    vertex 4.749983032297434 7.726708162181239e-13 3.8821067811909313
    vertex 4.957089813483984 8.036904475261508e-13 4.041025403788822
  endloop
endfacet
facet normal 0.0 -1.0 1.9895196601282777e-13
  outer loop
    vertex 2.989196594670533 7.726708162181239e-13 3.882106781190932
    vertex 4.957089813483984 8.036904475261508e-13 4.041025403788822
    vertex 2.782089813483983 8.036904475261508e-13 4.041025403788823
  endloop
endfacet
facet normal 0.0 -1.0 1.9895196601282777e-13
  outer loop
    vertex 2.782089813483983 8.036904475261508e-13 4.041025403788823
    vertex 4.957089813483984 8.036904475261508e-13 4.041025403788822
    vertex 5.198270768381461 8.23430212903986e-13 4.140925826293452
  endloop
endfacet
facet normal 0.0 -1.0 1.9895196601282777e-13
  outer loop
    vertex 2.782089813483983 8.036904475261508e-13 4.041025403788823
    vertex 5.198270768381461 8.23430212903986e-13 4.140925826293452
    vertex 2.5409088585865063 8.23430212903986e-13 4.140925826293452
  endloop
endfacet
facet normal 0.0 -1.0 1.9895196601282777e-13
  outer loop
    vertex 2.5409088585865063 8.23430212903986e-13 4.140925826293452
    vertex 5.198270768381461 8.23430212903986e-13 4.140925826293452
    vertex 5.457089813483983 8.318901123516298e-13 4.175000000004384
  endloop
endfacet
facet normal 0.0 -1.0 1.9895196601282777e-13
  outer loop
    vertex 2.5409088585865063 8.23430212903986e-13 4.140925826293452
    vertex 5.457089813483983 8.318901123516298e-13 4.175000000004384
    vertex 2.2820898134839838 8.318901123516298e-13 4.175000000004384
  endloop
endfacet
facet normal -1.6812763556166757e-31 -1.9880763701962711e-13 -1.0
  outer loop
    vertex 17.99999999999999 1.9999999999999962 3.983202656598905e-12
    vertex 0.0 0.0 4.380817930638158e-12
    vertex 0.0 1.9999999999999962 3.983202656598905e-12
  endloop
endfacet
facet normal -1.6812763556166757e-31 -1.9880763701962711e-13 -1.0
  outer loop
    vertex 0.0 0.0 4.380817930638158e-12
    vertex 17.99999999999999 1.9999999999999962 3.983202656598905e-12
    vertex 27.999999999999993 0.0 4.380817930638158e-12
  endloop
endfacet
facet normal -1.6812763556166757e-31 -1.9880763701962711e-13 -1.0
  outer loop
    vertex 27.999999999999993 0.0 4.380817930638158e-12
    vertex 17.99999999999999 1.9999999999999962 3.983202656598905e-12
    vertex 27.999999999999993 1.9999999999999962 3.983202656598905e-12
  endloop
endfacet
facet normal 0.9914448613738132 -2.5993260568894875e-14 -0.1305261922200309
  outer loop
    vertex 4.457089813483986 2.0000000000006306 3.1750000000039873
    vertex 4.491163987194912 6.824318887765911e-13 3.4338190451069055
    vertex 4.457089813483986 6.31672492090729e-13 3.1750000000043848
  endloop
endfacet
facet normal 0.9914448613738132 -2.5993260568894875e-14 -0.1305261922200309
  outer loop
    vertex 4.491163987194912 6.824318887765911e-13 3.4338190451069055
    vertex 4.457089813483986 2.0000000000006306 3.1750000000039873
    vertex 4.491163987194912 2.0000000000006817 3.433819045106507
  endloop
endfacet
facet normal 0.9914448613738077 2.5993802365537714e-14 0.13052619222007303
  outer loop
    vertex 4.4911639871949225 2.00000000000058 2.916180954901466
    vertex 4.457089813483986 6.31672492090729e-13 3.1750000000043848
    vertex 4.4911639871949225 5.809130954048669e-13 2.916180954901865
  endloop
endfacet
facet normal 0.9914448613738077 2.5993802365537714e-14 0.13052619222007303
  outer loop
    vertex 4.457089813483986 6.31672492090729e-13 3.1750000000043848
    vertex 4.4911639871949225 2.00000000000058 2.916180954901466
    vertex 4.457089813483986 2.0000000000006306 3.1750000000039873
  endloop
endfacet
facet normal 0.9238795325112897 7.620997242217726e-14 0.3826834323650825
  outer loop
    vertex 4.59106440969955 2.000000000000532 2.675000000003988
    vertex 4.4911639871949225 5.809130954048669e-13 2.916180954901865
    vertex 4.59106440969955 5.329736652015526e-13 2.6750000000043856
  endloop
endfacet
facet normal 0.9238795325112897 7.620997242217726e-14 0.3826834323650825
  outer loop
    vertex 4.4911639871949225 5.809130954048669e-13 2.916180954901865
    vertex 4.59106440969955 2.000000000000532 2.675000000003988
    vertex 4.4911639871949225 2.00000000000058 2.916180954901466
  endloop
endfacet
facet normal 0.7933533402912472 1.2123255880118358e-13 0.608761429008705
  outer loop
    vertex 4.749983032297434 2.00000000000049 2.4678932188174407
    vertex 4.59106440969955 5.329736652015526e-13 2.6750000000043856
    vertex 4.749983032297434 4.906741679633341e-13 2.467893218817838
  endloop
endfacet
facet normal 0.7933533402912472 1.2123255880118358e-13 0.608761429008705
  outer loop
    vertex 4.59106440969955 5.329736652015526e-13 2.6750000000043856
    vertex 4.749983032297434 2.00000000000049 2.4678932188174407
    vertex 4.59106440969955 2.000000000000532 2.675000000003988
  endloop
endfacet
facet normal 0.6087614290087144 1.5799334664417092e-13 0.79335334029124
  outer loop
    vertex 4.957089813483984 4.596545366553073e-13 2.3089745962199486
    vertex 4.749983032297434 2.00000000000049 2.4678932188174407
    vertex 4.749983032297434 4.906741679633341e-13 2.467893218817838
  endloop
endfacet
facet normal 0.6087614290087144 1.5799334664417092e-13 0.79335334029124
  outer loop
    vertex 4.749983032297434 2.00000000000049 2.4678932188174407
    vertex 4.957089813483984 4.596545366553073e-13 2.3089745962199486
    vertex 4.957089813483984 2.0000000000004587 2.3089745962195494
  endloop
endfacet
facet normal 0.38268343236509283 1.8398714900970312e-13 0.9238795325112854
  outer loop
    vertex 5.198270768381461 4.39914771277472e-13 2.2090741737153183
    vertex 4.957089813483984 2.0000000000004587 2.3089745962195494
    vertex 4.957089813483984 4.596545366553073e-13 2.3089745962199486
  endloop
endfacet
facet normal 0.38268343236509283 1.8398714900970312e-13 0.9238795325112854
  outer loop
    vertex 4.957089813483984 2.0000000000004587 2.3089745962195494
    vertex 5.198270768381461 4.39914771277472e-13 2.2090741737153183
    vertex 5.198270768381461 2.000000000000439 2.209074173714921
  endloop
endfacet
facet normal 0.13052619222005077 1.9744253122336542e-13 0.9914448613738105
  outer loop
    vertex 5.457089813483983 4.342748383123762e-13 2.1750000000043865
    vertex 5.198270768381461 2.000000000000439 2.209074173714921
    vertex 5.198270768381461 4.39914771277472e-13 2.2090741737153183
  endloop
endfacet
facet normal 0.13052619222005077 1.9744253122336542e-13 0.9914448613738105
  outer loop
    vertex 5.198270768381461 2.000000000000439 2.209074173714921
    vertex 5.457089813483983 4.342748383123762e-13 2.1750000000043865
    vertex 5.457089813483983 2.0000000000004334 2.175000000003989
  endloop
endfacet
facet normal -0.13052619222005074 1.9744253122336542e-13 0.9914448613738105
  outer loop
    vertex 5.7159088585865065 4.39914771277472e-13 2.2090741737153183
    vertex 5.457089813483983 2.0000000000004334 2.175000000003989
    vertex 5.457089813483983 4.342748383123762e-13 2.1750000000043865
  endloop
endfacet
facet normal -0.13052619222005074 1.9744253122336542e-13 0.9914448613738105
  outer loop
    vertex 5.457089813483983 2.0000000000004334 2.175000000003989
    vertex 5.7159088585865065 4.39914771277472e-13 2.2090741737153183
    vertex 5.7159088585865065 2.000000000000439 2.209074173714921
  endloop
endfacet
facet normal -0.38268343236509283 1.8398714900970312e-13 0.9238795325112854
  outer loop
    vertex 5.957089813483982 4.596545366553073e-13 2.3089745962199486
    vertex 5.7159088585865065 2.000000000000439 2.209074173714921
    vertex 5.7159088585865065 4.39914771277472e-13 2.2090741737153183
  endloop
endfacet
facet normal -0.38268343236509283 1.8398714900970312e-13 0.9238795325112854
  outer loop
    vertex 5.7159088585865065 2.000000000000439 2.209074173714921
    vertex 5.957089813483982 4.596545366553073e-13 2.3089745962199486
    vertex 5.957089813483982 2.0000000000004587 2.3089745962195494
  endloop
endfacet
facet normal -0.6087614290087153 1.5799334664417077e-13 0.7933533402912393
  outer loop
    vertex 6.164196594670533 4.906741679633341e-13 2.467893218817838
    vertex 5.957089813483982 2.0000000000004587 2.3089745962195494
    vertex 5.957089813483982 4.596545366553073e-13 2.3089745962199486
  endloop
endfacet
facet normal -0.6087614290087153 1.5799334664417077e-13 0.7933533402912393
  outer loop
    vertex 5.957089813483982 2.0000000000004587 2.3089745962195494
    vertex 6.164196594670533 4.906741679633341e-13 2.467893218817838
    vertex 6.164196594670533 2.00000000000049 2.4678932188174407
  endloop
endfacet
facet normal -0.7933533402912472 1.2123255880118358e-13 0.608761429008705
  outer loop
    vertex 6.323115217268417 5.329736652015526e-13 2.6750000000043856
    vertex 6.164196594670533 2.00000000000049 2.4678932188174407
    vertex 6.164196594670533 4.906741679633341e-13 2.467893218817838
  endloop
endfacet
facet normal -0.7933533402912472 1.2123255880118358e-13 0.608761429008705
  outer loop
    vertex 6.164196594670533 2.00000000000049 2.4678932188174407
    vertex 6.323115217268417 5.329736652015526e-13 2.6750000000043856
    vertex 6.323115217268417 2.000000000000532 2.675000000003988
  endloop
endfacet
facet normal -0.9238795325112744 7.620997242218463e-14 0.3826834323651195
  outer loop
    vertex 6.423015639773055 5.809130954048669e-13 2.916180954901865
    vertex 6.323115217268417 2.000000000000532 2.675000000003988
    vertex 6.323115217268417 5.329736652015526e-13 2.6750000000043856
  endloop
endfacet
facet normal -0.9238795325112744 7.620997242218463e-14 0.3826834323651195
  outer loop
    vertex 6.323115217268417 2.000000000000532 2.675000000003988
    vertex 6.423015639773055 5.809130954048669e-13 2.916180954901865
    vertex 6.423015639773055 2.00000000000058 2.9161809549014674
  endloop
endfacet
facet normal -0.9914448613738132 2.5994344162163734e-14 0.1305261922200307
  outer loop
    vertex 6.457089813483981 6.31672492090729e-13 3.1750000000043848
    vertex 6.423015639773055 2.00000000000058 2.9161809549014674
    vertex 6.423015639773055 5.809130954048669e-13 2.916180954901865
  endloop
endfacet
facet normal -0.9914448613738132 2.5994344162163734e-14 0.1305261922200307
  outer loop
    vertex 6.423015639773055 2.00000000000058 2.9161809549014674
    vertex 6.457089813483981 6.31672492090729e-13 3.1750000000043848
    vertex 6.457089813483981 2.0000000000006306 3.1750000000039873
  endloop
endfacet
facet normal -0.9914448613738077 -2.599380236553764e-14 -0.13052619222007267
  outer loop
    vertex 6.423015639773045 6.824318887765911e-13 3.433819045106907
    vertex 6.457089813483981 2.0000000000006306 3.1750000000039873
    vertex 6.457089813483981 6.31672492090729e-13 3.1750000000043848
  endloop
endfacet
facet normal -0.9914448613738077 -2.599380236553764e-14 -0.13052619222007267
  outer loop
    vertex 6.457089813483981 2.0000000000006306 3.1750000000039873
    vertex 6.423015639773045 6.824318887765911e-13 3.433819045106907
    vertex 6.423015639773045 2.0000000000006817 3.4338190451065085
  endloop
endfacet
facet normal -0.9238795325112895 -7.620997242217737e-14 -0.38268343236508306
  outer loop
    vertex 6.323115217268417 7.331912854624534e-13 3.675000000004385
    vertex 6.423015639773045 2.0000000000006817 3.4338190451065085
    vertex 6.423015639773045 6.824318887765911e-13 3.433819045106907
  endloop
endfacet
facet normal -0.9238795325112895 -7.620997242217737e-14 -0.38268343236508306
  outer loop
    vertex 6.423015639773045 2.0000000000006817 3.4338190451065085
    vertex 6.323115217268417 7.331912854624534e-13 3.675000000004385
    vertex 6.323115217268417 2.0000000000007323 3.675000000003987
  endloop
endfacet
facet normal -0.7933533402912467 -1.2123255880118373e-13 -0.6087614290087057
  outer loop
    vertex 6.164196594670533 7.726708162181239e-13 3.882106781190932
    vertex 6.323115217268417 2.0000000000007323 3.675000000003987
    vertex 6.323115217268417 7.331912854624534e-13 3.675000000004385
  endloop
endfacet
facet normal -0.7933533402912467 -1.2123255880118373e-13 -0.6087614290087057
  outer loop
    vertex 6.323115217268417 2.0000000000007323 3.675000000003987
    vertex 6.164196594670533 7.726708162181239e-13 3.882106781190932
    vertex 6.164196594670533 2.000000000000772 3.882106781190534
  endloop
endfacet
facet normal -0.6087614290087161 -1.5799334664417065e-13 -0.7933533402912387
  outer loop
    vertex 6.164196594670533 2.000000000000772 3.882106781190534
    vertex 5.957089813483982 8.036904475261508e-13 4.041025403788823
    vertex 5.957089813483982 2.000000000000803 4.041025403788425
  endloop
endfacet
facet normal -0.6087614290087161 -1.5799334664417065e-13 -0.7933533402912387
  outer loop
    vertex 5.957089813483982 8.036904475261508e-13 4.041025403788823
    vertex 6.164196594670533 2.000000000000772 3.882106781190534
    vertex 6.164196594670533 7.726708162181239e-13 3.882106781190932
  endloop
endfacet
facet normal -0.3826834323650905 -1.8398714900970335e-13 -0.9238795325112865
  outer loop
    vertex 5.957089813483982 2.000000000000803 4.041025403788425
    vertex 5.7159088585865065 8.23430212903986e-13 4.140925826293452
    vertex 5.7159088585865065 2.0000000000008225 4.140925826293054
  endloop
endfacet
facet normal -0.3826834323650905 -1.8398714900970335e-13 -0.9238795325112865
  outer loop
    vertex 5.7159088585865065 8.23430212903986e-13 4.140925826293452
    vertex 5.957089813483982 2.000000000000803 4.041025403788425
    vertex 5.957089813483982 8.036904475261508e-13 4.041025403788823
  endloop
endfacet
facet normal -0.13052619222005077 -1.9744253122336542e-13 -0.9914448613738105
  outer loop
    vertex 5.7159088585865065 2.0000000000008225 4.140925826293054
    vertex 5.457089813483983 8.318901123516298e-13 4.175000000004384
    vertex 5.457089813483983 2.000000000000831 4.175000000003985
  endloop
endfacet
facet normal -0.13052619222005077 -1.9744253122336542e-13 -0.9914448613738105
  outer loop
    vertex 5.457089813483983 8.318901123516298e-13 4.175000000004384
    vertex 5.7159088585865065 2.0000000000008225 4.140925826293054
    vertex 5.7159088585865065 8.23430212903986e-13 4.140925826293452
  endloop
endfacet
facet normal 0.13052619222005074 -1.9744253122336542e-13 -0.9914448613738105
  outer loop
    vertex 5.457089813483983 2.000000000000831 4.175000000003985
    vertex 5.198270768381461 8.23430212903986e-13 4.140925826293452
    vertex 5.198270768381461 2.0000000000008225 4.140925826293054
  endloop
endfacet
facet normal 0.13052619222005074 -1.9744253122336542e-13 -0.9914448613738105
  outer loop
    vertex 5.198270768381461 8.23430212903986e-13 4.140925826293452
    vertex 5.457089813483983 2.000000000000831 4.175000000003985
    vertex 5.457089813483983 8.318901123516298e-13 4.175000000004384
  endloop
endfacet
facet normal 0.3826834323650951 -1.8398714900970297e-13 -0.9238795325112846
  outer loop
    vertex 5.198270768381461 2.0000000000008225 4.140925826293054
    vertex 4.957089813483984 8.036904475261508e-13 4.041025403788822
    vertex 4.957089813483984 2.000000000000803 4.0410254037884235
  endloop
endfacet
facet normal 0.3826834323650951 -1.8398714900970297e-13 -0.9238795325112846
  outer loop
    vertex 4.957089813483984 8.036904475261508e-13 4.041025403788822
    vertex 5.198270768381461 2.0000000000008225 4.140925826293054
    vertex 5.198270768381461 8.23430212903986e-13 4.140925826293452
  endloop
endfacet
facet normal 0.6087614290087145 -1.5799681500584343e-13 -0.79335334029124
  outer loop
    vertex 4.957089813483984 2.000000000000803 4.0410254037884235
    vertex 4.749983032297434 7.726708162181239e-13 3.8821067811909313
    vertex 4.749983032297434 2.000000000000772 3.882106781190533
  endloop
endfacet
facet normal 0.6087614290087145 -1.5799681500584343e-13 -0.79335334029124
  outer loop
    vertex 4.749983032297434 7.726708162181239e-13 3.8821067811909313
    vertex 4.957089813483984 2.000000000000803 4.0410254037884235
    vertex 4.957089813483984 8.036904475261508e-13 4.041025403788822
  endloop
endfacet
facet normal 0.7933533402912467 -1.2123255880118373e-13 -0.6087614290087057
  outer loop
    vertex 4.59106440969955 2.0000000000007323 3.6750000000039864
    vertex 4.749983032297434 7.726708162181239e-13 3.8821067811909313
    vertex 4.59106440969955 7.331912854624534e-13 3.6750000000043848
  endloop
endfacet
facet normal 0.7933533402912467 -1.2123255880118373e-13 -0.6087614290087057
  outer loop
    vertex 4.749983032297434 7.726708162181239e-13 3.8821067811909313
    vertex 4.59106440969955 2.0000000000007323 3.6750000000039864
    vertex 4.749983032297434 2.000000000000772 3.882106781190533
  endloop
endfacet
facet normal 0.9238795325112747 -7.620997242218455e-14 -0.3826834323651191
  outer loop
    vertex 4.491163987194912 2.0000000000006817 3.433819045106507
    vertex 4.59106440969955 7.331912854624534e-13 3.6750000000043848
    vertex 4.491163987194912 6.824318887765911e-13 3.4338190451069055
  endloop
endfacet
facet normal 0.9238795325112747 -7.620997242218455e-14 -0.3826834323651191
  outer loop
    vertex 4.59106440969955 7.331912854624534e-13 3.6750000000043848
    vertex 4.491163987194912 2.0000000000006817 3.433819045106507
    vertex 4.59106440969955 2.0000000000007323 3.6750000000039864
  endloop
endfacet
facet normal -1.0 0.0 0.0
  outer loop
    vertex 17.99999999999999 2.000000000000594 3.0000000000039835
    vertex 17.99999999999999 22.0 0.0
    vertex 17.99999999999999 1.9999999999999962 3.983202656598905e-12
  endloop
endfacet
facet normal -1.0 0.0 0.0
  outer loop
    vertex 17.99999999999999 22.0 0.0
    vertex 17.99999999999999 2.000000000000594 3.0000000000039835
    vertex 17.99999999999999 22.0000000000002 0.9999999999999996
  endloop
endfacet
facet normal 0.0 0.09950371902119712 0.9950371902099695
  outer loop
    vertex 27.999999999999993 2.000000000000594 3.0000000000039835
    vertex 17.99999999999999 22.0000000000002 0.9999999999999996
    vertex 17.99999999999999 2.000000000000594 3.0000000000039835
  endloop
endfacet
facet normal 0.0 0.09950371902119712 0.9950371902099695
  outer loop
    vertex 17.99999999999999 22.0000000000002 0.9999999999999996
    vertex 27.999999999999993 2.000000000000594 3.0000000000039835
    vertex 27.999999999999993 22.0000000000002 0.9999999999999996
  endloop
endfacet
facet normal -3.180884385077422e-31 -1.9916013282994524e-13 -1.0
  outer loop
    vertex 27.999999999999993 22.0 0.0
    vertex 17.99999999999999 1.9999999999999962 3.983202656598905e-12
    vertex 17.99999999999999 22.0 0.0
  endloop
endfacet
facet normal -3.180884385077422e-31 -1.9916013282994524e-13 -1.0
  outer loop
    vertex 17.99999999999999 1.9999999999999962 3.983202656598905e-12
    vertex 27.999999999999993 22.0 0.0
    vertex 27.999999999999993 1.9999999999999962 3.983202656598905e-12
  endloop
endfacet
facet normal 0.0 1.0 -2.002176202609008e-13
  outer loop
    vertex 17.99999999999999 22.0000000000002 0.9999999999999996
    vertex 27.999999999999993 22.0 0.0
    vertex 17.99999999999999 22.0 0.0
  endloop
endfacet
facet normal 0.0 1.0 -2.002176202609008e-13
  outer loop
    vertex 27.999999999999993 22.0 0.0
    vertex 17.99999999999999 22.0000000000002 0.9999999999999996
    vertex 27.999999999999993 22.0000000000002 0.9999999999999996
  endloop
endfacet
endsolid Untitled-5b218800
