solid flag_v3
facet normal 1.0 0.0 0.0
  outer loop
    vertex 116.21822 14.174999999999379 -9.533917000002187
    vertex 116.21822 -5.825000000000026 -6.533916999998204
    vertex 116.21822 -5.825000000000624 -9.533916999998203
  endloop
endfacet
facet normal 1.0 0.0 0.0
  outer loop
    vertex 116.21822 -5.825000000000026 -6.533916999998204
    vertex 116.21822 14.174999999999379 -9.533917000002187
    vertex 116.21822 14.17499999999958 -8.533917000002187
  endloop
endfacet
facet normal 1.0 0.0 0.0
  outer loop
    vertex 116.21822 -5.825000000000624 -9.533916999998203
    vertex 116.21822 -7.824999999999357 -3.183916999997798
    vertex 116.21822 -7.82500000000062 -9.533916999997807
  endloop
endfacet
facet normal 1.0 0.0 0.0
  outer loop
    vertex 116.21822 -7.824999999999357 -3.183916999997798
    vertex 116.21822 -5.825000000000624 -9.533916999998203
    vertex 116.21822 -5.824999999999361 -3.1839169999981958
  endloop
endfacet
facet normal 1.0 0.0 0.0
  outer loop
    vertex 116.21822 -5.824999999999361 -3.1839169999981958
    vertex 116.21822 -5.825000000000624 -9.533916999998203
    vertex 116.21822 -5.825000000000026 -6.533916999998204
  endloop
endfacet
facet normal 0.13052619222005077 1.9744253122336542e-13 0.9914448613738105
  outer loop
    vertex 88.500309813484 -7.825000000000186 -7.3589169999978
    vertex 88.24149076838147 -5.825000000000181 -7.3248428262872665
    vertex 88.24149076838147 -7.8250000000001805 -7.324842826286869
  endloop
endfacet
facet normal 0.13052619222005077 1.9744253122336542e-13 0.9914448613738105
  outer loop
    vertex 88.24149076838147 -5.825000000000181 -7.3248428262872665
    vertex 88.500309813484 -7.825000000000186 -7.3589169999978
    vertex 88.500309813484 -5.825000000000187 -7.358916999998198
  endloop
endfacet
facet normal -0.13052619222005074 1.9744253122336542e-13 0.9914448613738105
  outer loop
    vertex 88.75912885858652 -7.8250000000001805 -7.324842826286869
    vertex 88.500309813484 -5.825000000000187 -7.358916999998198
    vertex 88.500309813484 -7.825000000000186 -7.3589169999978
  endloop
endfacet
facet normal -0.13052619222005074 1.9744253122336542e-13 0.9914448613738105
  outer loop
    vertex 88.500309813484 -5.825000000000187 -7.358916999998198
    vertex 88.75912885858652 -7.8250000000001805 -7.324842826286869
    vertex 88.75912885858652 -5.825000000000181 -7.3248428262872665
  endloop
endfacet
facet normal -0.38268343236509283 1.8398714900970312e-13 0.9238795325112854
  outer loop
    vertex 89.000309813484 -7.825000000000161 -7.224942403782238
    vertex 88.75912885858652 -5.825000000000181 -7.3248428262872665
    vertex 88.75912885858652 -7.8250000000001805 -7.324842826286869
  endloop
endfacet
facet normal -0.38268343236509283 1.8398714900970312e-13 0.9238795325112854
  outer loop
    vertex 88.75912885858652 -5.825000000000181 -7.3248428262872665
    vertex 89.000309813484 -7.825000000000161 -7.224942403782238
    vertex 89.000309813484 -5.825000000000161 -7.224942403782637
  endloop
endfacet
facet normal -0.6087614290087153 1.5799334664417077e-13 0.7933533402912393
  outer loop
    vertex 89.20741659467055 -7.82500000000013 -7.066023781184349
    vertex 89.000309813484 -5.825000000000161 -7.224942403782637
    vertex 89.000309813484 -7.825000000000161 -7.224942403782238
  endloop
endfacet
facet normal -0.6087614290087153 1.5799334664417077e-13 0.7933533402912393
  outer loop
    vertex 89.000309813484 -5.825000000000161 -7.224942403782637
    vertex 89.20741659467055 -7.82500000000013 -7.066023781184349
    vertex 89.20741659467055 -5.825000000000131 -7.066023781184746
  endloop
endfacet
facet normal -0.7933533402912472 1.2123255880118358e-13 0.608761429008705
  outer loop
    vertex 89.36633521726843 -7.825000000000087 -6.858916999997801
    vertex 89.20741659467055 -5.825000000000131 -7.066023781184746
    vertex 89.20741659467055 -7.82500000000013 -7.066023781184349
  endloop
endfacet
facet normal -0.7933533402912472 1.2123255880118358e-13 0.608761429008705
  outer loop
    vertex 89.20741659467055 -5.825000000000131 -7.066023781184746
    vertex 89.36633521726843 -7.825000000000087 -6.858916999997801
    vertex 89.36633521726843 -5.825000000000088 -6.858916999998199
  endloop
endfacet
facet normal -0.9238795325112744 7.620997242218463e-14 0.3826834323651195
  outer loop
    vertex 89.46623563977306 -7.825000000000039 -6.6177360451003215
    vertex 89.36633521726843 -5.825000000000088 -6.858916999998199
    vertex 89.36633521726843 -7.825000000000087 -6.858916999997801
  endloop
endfacet
facet normal -0.9238795325112744 7.620997242218463e-14 0.3826834323651195
  outer loop
    vertex 89.36633521726843 -5.825000000000088 -6.858916999998199
    vertex 89.46623563977306 -7.825000000000039 -6.6177360451003215
    vertex 89.46623563977306 -5.82500000000004 -6.6177360451007194
  endloop
endfacet
facet normal -0.9914448613738132 2.5994344162163734e-14 0.1305261922200307
  outer loop
    vertex 89.500309813484 -7.824999999999989 -6.358916999997802
    vertex 89.46623563977306 -5.82500000000004 -6.6177360451007194
    vertex 89.46623563977306 -7.825000000000039 -6.6177360451003215
  endloop
endfacet
facet normal -0.9914448613738132 2.5994344162163734e-14 0.1305261922200307
  outer loop
    vertex 89.46623563977306 -5.82500000000004 -6.6177360451007194
    vertex 89.500309813484 -7.824999999999989 -6.358916999997802
    vertex 89.500309813484 -5.8249999999999895 -6.3589169999982
  endloop
endfacet
facet normal -0.9914448613738077 -2.599380236553764e-14 -0.13052619222007267
  outer loop
    vertex 89.46623563977305 -7.824999999999938 -6.10009795489528
    vertex 89.500309813484 -5.8249999999999895 -6.3589169999982
    vertex 89.500309813484 -7.824999999999989 -6.358916999997802
  endloop
endfacet
facet normal -0.9914448613738077 -2.599380236553764e-14 -0.13052619222007267
  outer loop
    vertex 89.500309813484 -5.8249999999999895 -6.3589169999982
    vertex 89.46623563977305 -7.824999999999938 -6.10009795489528
    vertex 89.46623563977305 -5.824999999999939 -6.100097954895678
  endloop
endfacet
facet normal -0.9238795325112895 -7.620997242217737e-14 -0.38268343236508306
  outer loop
    vertex 89.36633521726843 -7.824999999999887 -5.858916999997802
    vertex 89.46623563977305 -5.824999999999939 -6.100097954895678
    vertex 89.46623563977305 -7.824999999999938 -6.10009795489528
  endloop
endfacet
facet normal -0.9238795325112895 -7.620997242217737e-14 -0.38268343236508306
  outer loop
    vertex 89.46623563977305 -5.824999999999939 -6.100097954895678
    vertex 89.36633521726843 -7.824999999999887 -5.858916999997802
    vertex 89.36633521726843 -5.824999999999887 -5.8589169999982
  endloop
endfacet
facet normal -0.7933533402912467 -1.2123255880118373e-13 -0.6087614290087057
  outer loop
    vertex 89.20741659467055 -7.824999999999847 -5.651810218811255
    vertex 89.36633521726843 -5.824999999999887 -5.8589169999982
    vertex 89.36633521726843 -7.824999999999887 -5.858916999997802
  endloop
endfacet
facet normal -0.7933533402912467 -1.2123255880118373e-13 -0.6087614290087057
  outer loop
    vertex 89.36633521726843 -5.824999999999887 -5.8589169999982
    vertex 89.20741659467055 -7.824999999999847 -5.651810218811255
    vertex 89.20741659467055 -5.824999999999848 -5.6518102188116535
  endloop
endfacet
facet normal -0.6087614290087161 -1.5799334664417065e-13 -0.7933533402912387
  outer loop
    vertex 89.20741659467055 -5.824999999999848 -5.6518102188116535
    vertex 89.000309813484 -7.824999999999816 -5.492891596213363
    vertex 89.000309813484 -5.824999999999817 -5.492891596213762
  endloop
endfacet
facet normal -0.6087614290087161 -1.5799334664417065e-13 -0.7933533402912387
  outer loop
    vertex 89.000309813484 -7.824999999999816 -5.492891596213363
    vertex 89.20741659467055 -5.824999999999848 -5.6518102188116535
    vertex 89.20741659467055 -7.824999999999847 -5.651810218811255
  endloop
endfacet
facet normal -0.3826834323650905 -1.8398714900970335e-13 -0.9238795325112865
  outer loop
    vertex 89.000309813484 -5.824999999999817 -5.492891596213762
    vertex 88.75912885858652 -7.824999999999797 -5.392991173708735
    vertex 88.75912885858652 -5.824999999999798 -5.392991173709134
  endloop
endfacet
facet normal -0.3826834323650905 -1.8398714900970335e-13 -0.9238795325112865
  outer loop
    vertex 88.75912885858652 -7.824999999999797 -5.392991173708735
    vertex 89.000309813484 -5.824999999999817 -5.492891596213762
    vertex 89.000309813484 -7.824999999999816 -5.492891596213363
  endloop
endfacet
facet normal -0.13052619222005077 -1.9744253122336542e-13 -0.9914448613738105
  outer loop
    vertex 88.75912885858652 -5.824999999999798 -5.392991173709134
    vertex 88.500309813484 -7.824999999999788 -5.3589169999978035
    vertex 88.500309813484 -5.824999999999789 -5.358916999998201
  endloop
endfacet
facet normal -0.13052619222005077 -1.9744253122336542e-13 -0.9914448613738105
  outer loop
    vertex 88.500309813484 -7.824999999999788 -5.3589169999978035
    vertex 88.75912885858652 -5.824999999999798 -5.392991173709134
    vertex 88.75912885858652 -7.824999999999797 -5.392991173708735
  endloop
endfacet
facet normal 0.13052619222005074 -1.9744253122336542e-13 -0.9914448613738105
  outer loop
    vertex 88.500309813484 -5.824999999999789 -5.358916999998201
    vertex 88.24149076838147 -7.824999999999797 -5.392991173708735
    vertex 88.24149076838147 -5.824999999999798 -5.392991173709134
  endloop
endfacet
facet normal 0.13052619222005074 -1.9744253122336542e-13 -0.9914448613738105
  outer loop
    vertex 88.24149076838147 -7.824999999999797 -5.392991173708735
    vertex 88.500309813484 -5.824999999999789 -5.358916999998201
    vertex 88.500309813484 -7.824999999999788 -5.3589169999978035
  endloop
endfacet
facet normal 0.3826834323650951 -1.8398714900970297e-13 -0.9238795325112846
  outer loop
    vertex 88.24149076838147 -5.824999999999798 -5.392991173709134
    vertex 88.000309813484 -7.824999999999816 -5.492891596213365
    vertex 88.000309813484 -5.824999999999817 -5.492891596213763
  endloop
endfacet
facet normal 0.3826834323650951 -1.8398714900970297e-13 -0.9238795325112846
  outer loop
    vertex 88.000309813484 -7.824999999999816 -5.492891596213365
    vertex 88.24149076838147 -5.824999999999798 -5.392991173709134
    vertex 88.24149076838147 -7.824999999999797 -5.392991173708735
  endloop
endfacet
facet normal 0.6087614290087145 -1.5799681500584343e-13 -0.79335334029124
  outer loop
    vertex 88.000309813484 -5.824999999999817 -5.492891596213763
    vertex 87.79320303229744 -7.824999999999847 -5.651810218811256
    vertex 87.79320303229744 -5.824999999999848 -5.6518102188116535
  endloop
endfacet
facet normal 0.6087614290087145 -1.5799681500584343e-13 -0.79335334029124
  outer loop
    vertex 87.79320303229744 -7.824999999999847 -5.651810218811256
    vertex 88.000309813484 -5.824999999999817 -5.492891596213763
    vertex 88.000309813484 -7.824999999999816 -5.492891596213365
  endloop
endfacet
facet normal 0.7933533402912467 -1.2123255880118373e-13 -0.6087614290087057
  outer loop
    vertex 87.63428440969956 -5.824999999999887 -5.8589169999982005
    vertex 87.79320303229744 -7.824999999999847 -5.651810218811256
    vertex 87.63428440969956 -7.824999999999887 -5.858916999997803
  endloop
endfacet
facet normal 0.7933533402912467 -1.2123255880118373e-13 -0.6087614290087057
  outer loop
    vertex 87.79320303229744 -7.824999999999847 -5.651810218811256
    vertex 87.63428440969956 -5.824999999999887 -5.8589169999982005
    vertex 87.79320303229744 -5.824999999999848 -5.6518102188116535
  endloop
endfacet
facet normal 0.9238795325112747 -7.620997242218455e-14 -0.3826834323651191
  outer loop
    vertex 87.53438398719491 -5.824999999999939 -6.10009795489568
    vertex 87.63428440969956 -7.824999999999887 -5.858916999997803
    vertex 87.53438398719491 -7.824999999999938 -6.100097954895281
  endloop
endfacet
facet normal 0.9238795325112747 -7.620997242218455e-14 -0.3826834323651191
  outer loop
    vertex 87.63428440969956 -7.824999999999887 -5.858916999997803
    vertex 87.53438398719491 -5.824999999999939 -6.10009795489568
    vertex 87.63428440969956 -5.824999999999887 -5.8589169999982005
  endloop
endfacet
facet normal 0.9914448613738132 -2.5993260568894875e-14 -0.1305261922200309
  outer loop
    vertex 87.500309813484 -5.8249999999999895 -6.3589169999982
    vertex 87.53438398719491 -7.824999999999938 -6.100097954895281
    vertex 87.500309813484 -7.824999999999989 -6.358916999997802
  endloop
endfacet
facet normal 0.9914448613738132 -2.5993260568894875e-14 -0.1305261922200309
  outer loop
    vertex 87.53438398719491 -7.824999999999938 -6.100097954895281
    vertex 87.500309813484 -5.8249999999999895 -6.3589169999982
    vertex 87.53438398719491 -5.824999999999939 -6.10009795489568
  endloop
endfacet
facet normal 0.9914448613738077 2.5993802365537714e-14 0.13052619222007303
  outer loop
    vertex 87.53438398719493 -5.82500000000004 -6.617736045100721
    vertex 87.500309813484 -7.824999999999989 -6.358916999997802
    vertex 87.53438398719493 -7.825000000000039 -6.6177360451003215
  endloop
endfacet
facet normal 0.9914448613738077 2.5993802365537714e-14 0.13052619222007303
  outer loop
    vertex 87.500309813484 -7.824999999999989 -6.358916999997802
    vertex 87.53438398719493 -5.82500000000004 -6.617736045100721
    vertex 87.500309813484 -5.8249999999999895 -6.3589169999982
  endloop
endfacet
facet normal 0.9238795325112897 7.620997242217726e-14 0.3826834323650825
  outer loop
    vertex 87.63428440969956 -5.825000000000088 -6.858916999998199
    vertex 87.53438398719493 -7.825000000000039 -6.6177360451003215
    vertex 87.63428440969956 -7.825000000000087 -6.858916999997801
  endloop
endfacet
facet normal 0.9238795325112897 7.620997242217726e-14 0.3826834323650825
  outer loop
    vertex 87.53438398719493 -7.825000000000039 -6.6177360451003215
    vertex 87.63428440969956 -5.825000000000088 -6.858916999998199
    vertex 87.53438398719493 -5.82500000000004 -6.617736045100721
  endloop
endfacet
facet normal 0.7933533402912472 1.2123255880118358e-13 0.608761429008705
  outer loop
    vertex 87.79320303229744 -5.825000000000131 -7.066023781184746
    vertex 87.63428440969956 -7.825000000000087 -6.858916999997801
    vertex 87.79320303229744 -7.82500000000013 -7.066023781184349
  endloop
endfacet
facet normal 0.7933533402912472 1.2123255880118358e-13 0.608761429008705
  outer loop
    vertex 87.63428440969956 -7.825000000000087 -6.858916999997801
    vertex 87.79320303229744 -5.825000000000131 -7.066023781184746
    vertex 87.63428440969956 -5.825000000000088 -6.858916999998199
  endloop
endfacet
facet normal 0.6087614290087144 1.5799334664417092e-13 0.79335334029124
  outer loop
    vertex 88.000309813484 -7.825000000000161 -7.224942403782238
    vertex 87.79320303229744 -5.825000000000131 -7.066023781184746
    vertex 87.79320303229744 -7.82500000000013 -7.066023781184349
  endloop
endfacet
facet normal 0.6087614290087144 1.5799334664417092e-13 0.79335334029124
  outer loop
    vertex 87.79320303229744 -5.825000000000131 -7.066023781184746
    vertex 88.000309813484 -7.825000000000161 -7.224942403782238
    vertex 88.000309813484 -5.825000000000161 -7.224942403782637
  endloop
endfacet
facet normal 0.38268343236509283 1.8398714900970312e-13 0.9238795325112854
  outer loop
    vertex 88.24149076838147 -7.8250000000001805 -7.324842826286869
    vertex 88.000309813484 -5.825000000000161 -7.224942403782637
    vertex 88.000309813484 -7.825000000000161 -7.224942403782238
  endloop
endfacet
facet normal 0.38268343236509283 1.8398714900970312e-13 0.9238795325112854
  outer loop
    vertex 88.000309813484 -5.825000000000161 -7.224942403782637
    vertex 88.24149076838147 -7.8250000000001805 -7.324842826286869
    vertex 88.24149076838147 -5.825000000000181 -7.3248428262872665
  endloop
endfacet
facet normal -1.0 0.0 0.0
  outer loop
    vertex 86.21822 -7.824999999999357 -3.183916999997798
    vertex 86.21822 -5.825000000000624 -9.533916999998203
    vertex 86.21822 -7.82500000000062 -9.533916999997807
  endloop
endfacet
facet normal -1.0 0.0 0.0
  outer loop
    vertex 86.21822 -5.825000000000624 -9.533916999998203
    vertex 86.21822 -7.824999999999357 -3.183916999997798
    vertex 86.21822 -5.824999999999361 -3.1839169999981958
  endloop
endfacet
facet normal -1.1456927537598586e-17 1.0 -1.9896088108381583e-13
  outer loop
    vertex 86.21822 -5.825000000000624 -9.533916999998203
    vertex 88.24149076838147 -5.825000000000181 -7.3248428262872665
    vertex 104.21822 -5.825000000000624 -9.533916999998203
  endloop
endfacet
facet normal -1.1456927537598586e-17 1.0 -1.9896088108381583e-13
  outer loop
    vertex 88.24149076838147 -5.825000000000181 -7.3248428262872665
    vertex 86.21822 -5.825000000000624 -9.533916999998203
    vertex 88.000309813484 -5.825000000000161 -7.224942403782637
  endloop
endfacet
facet normal -1.1456927537598586e-17 1.0 -1.9896088108381583e-13
  outer loop
    vertex 88.000309813484 -5.825000000000161 -7.224942403782637
    vertex 86.21822 -5.825000000000624 -9.533916999998203
    vertex 87.79320303229744 -5.825000000000131 -7.066023781184746
  endloop
endfacet
facet normal -1.1456927537598586e-17 1.0 -1.9896088108381583e-13
  outer loop
    vertex 87.79320303229744 -5.825000000000131 -7.066023781184746
    vertex 86.21822 -5.825000000000624 -9.533916999998203
    vertex 87.63428440969956 -5.825000000000088 -6.858916999998199
  endloop
endfacet
facet normal -1.1456927537598586e-17 1.0 -1.9896088108381583e-13
  outer loop
    vertex 87.63428440969956 -5.825000000000088 -6.858916999998199
    vertex 86.21822 -5.825000000000624 -9.533916999998203
    vertex 87.53438398719493 -5.82500000000004 -6.617736045100721
  endloop
endfacet
facet normal -1.1456927537598586e-17 1.0 -1.9896088108381583e-13
  outer loop
    vertex 87.53438398719493 -5.82500000000004 -6.617736045100721
    vertex 86.21822 -5.825000000000624 -9.533916999998203
    vertex 86.21822 -5.824999999999361 -3.1839169999981958
  endloop
endfacet
facet normal -1.1456927537598586e-17 1.0 -1.9896088108381583e-13
  outer loop
    vertex 104.21822 -5.825000000000624 -9.533916999998203
    vertex 88.24149076838147 -5.825000000000181 -7.3248428262872665
    vertex 88.500309813484 -5.825000000000187 -7.358916999998198
  endloop
endfacet
facet normal -1.1456927537598586e-17 1.0 -1.9896088108381583e-13
  outer loop
    vertex 87.53438398719493 -5.82500000000004 -6.617736045100721
    vertex 86.21822 -5.824999999999361 -3.1839169999981958
    vertex 87.500309813484 -5.8249999999999895 -6.3589169999982
  endloop
endfacet
facet normal -1.1456927537598586e-17 1.0 -1.9896088108381583e-13
  outer loop
    vertex 87.500309813484 -5.8249999999999895 -6.3589169999982
    vertex 86.21822 -5.824999999999361 -3.1839169999981958
    vertex 87.53438398719491 -5.824999999999939 -6.10009795489568
  endloop
endfacet
facet normal -1.1456927537598586e-17 1.0 -1.9896088108381583e-13
  outer loop
    vertex 87.53438398719491 -5.824999999999939 -6.10009795489568
    vertex 86.21822 -5.824999999999361 -3.1839169999981958
    vertex 87.63428440969956 -5.824999999999887 -5.8589169999982005
  endloop
endfacet
facet normal -1.1456927537598586e-17 1.0 -1.9896088108381583e-13
  outer loop
    vertex 87.63428440969956 -5.824999999999887 -5.8589169999982005
    vertex 86.21822 -5.824999999999361 -3.1839169999981958
    vertex 87.79320303229744 -5.824999999999848 -5.6518102188116535
  endloop
endfacet
facet normal -1.1456927537598586e-17 1.0 -1.9896088108381583e-13
  outer loop
    vertex 87.79320303229744 -5.824999999999848 -5.6518102188116535
    vertex 86.21822 -5.824999999999361 -3.1839169999981958
    vertex 88.000309813484 -5.824999999999817 -5.492891596213763
  endloop
endfacet
facet normal -1.1456927537598586e-17 1.0 -1.9896088108381583e-13
  outer loop
    vertex 88.000309813484 -5.824999999999817 -5.492891596213763
    vertex 86.21822 -5.824999999999361 -3.1839169999981958
    vertex 88.24149076838147 -5.824999999999798 -5.392991173709134
  endloop
endfacet
facet normal -1.1456927537598586e-17 1.0 -1.9896088108381583e-13
  outer loop
    vertex 88.24149076838147 -5.824999999999798 -5.392991173709134
    vertex 86.21822 -5.824999999999361 -3.1839169999981958
    vertex 88.500309813484 -5.824999999999789 -5.358916999998201
  endloop
endfacet
facet normal -1.1456927537598586e-17 1.0 -1.9896088108381583e-13
  outer loop
    vertex 88.500309813484 -5.824999999999789 -5.358916999998201
    vertex 86.21822 -5.824999999999361 -3.1839169999981958
    vertex 91.67530981348399 -5.824999999999789 -5.358916999998201
  endloop
endfacet
facet normal -1.1456927537598586e-17 1.0 -1.9896088108381583e-13
  outer loop
    vertex 104.21822 -5.825000000000624 -9.533916999998203
    vertex 91.67530981348399 -5.825000000000187 -7.358916999998198
    vertex 104.21822 -5.825000000000026 -6.533916999998204
  endloop
endfacet
facet normal -1.1456927537598586e-17 1.0 -1.9896088108381583e-13
  outer loop
    vertex 91.67530981348399 -5.825000000000187 -7.358916999998198
    vertex 104.21822 -5.825000000000624 -9.533916999998203
    vertex 88.500309813484 -5.825000000000187 -7.358916999998198
  endloop
endfacet
facet normal -1.1456927537598586e-17 1.0 -1.9896088108381583e-13
  outer loop
    vertex 104.21822 -5.825000000000026 -6.533916999998204
    vertex 91.67530981348399 -5.825000000000187 -7.358916999998198
    vertex 91.93412885858652 -5.825000000000181 -7.3248428262872665
  endloop
endfacet
facet normal -1.1456927537598586e-17 1.0 -1.9896088108381583e-13
  outer loop
    vertex 104.21822 -5.825000000000026 -6.533916999998204
    vertex 91.93412885858652 -5.825000000000181 -7.3248428262872665
    vertex 92.17530981348399 -5.825000000000161 -7.224942403782637
  endloop
endfacet
facet normal -1.1456927537598586e-17 1.0 -1.9896088108381583e-13
  outer loop
    vertex 104.21822 -5.825000000000026 -6.533916999998204
    vertex 92.17530981348399 -5.825000000000161 -7.224942403782637
    vertex 92.38241659467054 -5.825000000000131 -7.066023781184746
  endloop
endfacet
facet normal -1.1456927537598586e-17 1.0 -1.9896088108381583e-13
  outer loop
    vertex 104.21822 -5.825000000000026 -6.533916999998204
    vertex 92.38241659467054 -5.825000000000131 -7.066023781184746
    vertex 92.54133521726843 -5.825000000000088 -6.858916999998199
  endloop
endfacet
facet normal -1.1456927537598586e-17 1.0 -1.9896088108381583e-13
  outer loop
    vertex 104.21822 -5.825000000000026 -6.533916999998204
    vertex 92.54133521726843 -5.825000000000088 -6.858916999998199
    vertex 92.64123563977306 -5.82500000000004 -6.6177360451007194
  endloop
endfacet
facet normal -1.1456927537598586e-17 1.0 -1.9896088108381583e-13
  outer loop
    vertex 104.21822 -5.825000000000026 -6.533916999998204
    vertex 92.64123563977306 -5.82500000000004 -6.6177360451007194
    vertex 92.67530981348399 -5.8249999999999895 -6.3589169999982
  endloop
endfacet
facet normal -1.1456927537598586e-17 1.0 -1.9896088108381583e-13
  outer loop
    vertex 104.21822 -5.825000000000026 -6.533916999998204
    vertex 92.67530981348399 -5.8249999999999895 -6.3589169999982
    vertex 116.21822 -5.825000000000026 -6.533916999998204
  endloop
endfacet
facet normal -1.1456927537598586e-17 1.0 -1.9896088108381583e-13
  outer loop
    vertex 116.21822 -5.825000000000026 -6.533916999998204
    vertex 92.67530981348399 -5.8249999999999895 -6.3589169999982
    vertex 116.21822 -5.824999999999361 -3.1839169999981958
  endloop
endfacet
facet normal -1.1456927537598586e-17 1.0 -1.9896088108381583e-13
  outer loop
    vertex 116.21822 -5.824999999999361 -3.1839169999981958
    vertex 92.67530981348399 -5.8249999999999895 -6.3589169999982
    vertex 92.64123563977306 -5.824999999999939 -6.100097954895678
  endloop
endfacet
facet normal -1.1456927537598586e-17 1.0 -1.9896088108381583e-13
  outer loop
    vertex 116.21822 -5.824999999999361 -3.1839169999981958
    vertex 92.64123563977306 -5.824999999999939 -6.100097954895678
    vertex 92.54133521726843 -5.824999999999887 -5.8589169999982
  endloop
endfacet
facet normal -1.1456927537598586e-17 1.0 -1.9896088108381583e-13
  outer loop
    vertex 116.21822 -5.824999999999361 -3.1839169999981958
    vertex 92.54133521726843 -5.824999999999887 -5.8589169999982
    vertex 92.38241659467054 -5.824999999999848 -5.6518102188116535
  endloop
endfacet
facet normal -1.1456927537598586e-17 1.0 -1.9896088108381583e-13
  outer loop
    vertex 116.21822 -5.824999999999361 -3.1839169999981958
    vertex 92.38241659467054 -5.824999999999848 -5.6518102188116535
    vertex 92.17530981348399 -5.824999999999817 -5.492891596213762
  endloop
endfacet
facet normal -1.1456927537598586e-17 1.0 -1.9896088108381583e-13
  outer loop
    vertex 116.21822 -5.824999999999361 -3.1839169999981958
    vertex 92.17530981348399 -5.824999999999817 -5.492891596213762
    vertex 91.93412885858652 -5.824999999999798 -5.392991173709134
  endloop
endfacet
facet normal -1.1456927537598586e-17 1.0 -1.9896088108381583e-13
  outer loop
    vertex 116.21822 -5.824999999999361 -3.1839169999981958
    vertex 91.93412885858652 -5.824999999999798 -5.392991173709134
    vertex 91.67530981348399 -5.824999999999789 -5.358916999998201
  endloop
endfacet
facet normal -1.1456927537598586e-17 1.0 -1.9896088108381583e-13
  outer loop
    vertex 116.21822 -5.824999999999361 -3.1839169999981958
    vertex 91.67530981348399 -5.824999999999789 -5.358916999998201
    vertex 86.21822 -5.824999999999361 -3.1839169999981958
  endloop
endfacet
facet normal -1.1456927537598586e-17 1.0 -1.9896088108381583e-13
  outer loop
    vertex 88.75912885858652 -5.825000000000181 -7.3248428262872665
    vertex 91.67530981348399 -5.825000000000187 -7.358916999998198
    vertex 88.500309813484 -5.825000000000187 -7.358916999998198
  endloop
endfacet
facet normal -1.1456927537598586e-17 1.0 -1.9896088108381583e-13
  outer loop
    vertex 91.67530981348399 -5.825000000000187 -7.358916999998198
    vertex 88.75912885858652 -5.825000000000181 -7.3248428262872665
    vertex 91.41649076838146 -5.825000000000181 -7.3248428262872665
  endloop
endfacet
facet normal -1.1456927537598586e-17 1.0 -1.9896088108381583e-13
  outer loop
    vertex 91.41649076838146 -5.825000000000181 -7.3248428262872665
    vertex 88.75912885858652 -5.825000000000181 -7.3248428262872665
    vertex 89.000309813484 -5.825000000000161 -7.224942403782637
  endloop
endfacet
facet normal -1.1456927537598586e-17 1.0 -1.9896088108381583e-13
  outer loop
    vertex 91.41649076838146 -5.825000000000181 -7.3248428262872665
    vertex 89.000309813484 -5.825000000000161 -7.224942403782637
    vertex 91.17530981348399 -5.825000000000161 -7.224942403782637
  endloop
endfacet
facet normal -1.1456927537598586e-17 1.0 -1.9896088108381583e-13
  outer loop
    vertex 91.17530981348399 -5.825000000000161 -7.224942403782637
    vertex 89.000309813484 -5.825000000000161 -7.224942403782637
    vertex 89.20741659467055 -5.825000000000131 -7.066023781184746
  endloop
endfacet
facet normal -1.1456927537598586e-17 1.0 -1.9896088108381583e-13
  outer loop
    vertex 91.17530981348399 -5.825000000000161 -7.224942403782637
    vertex 89.20741659467055 -5.825000000000131 -7.066023781184746
    vertex 90.96820303229744 -5.825000000000131 -7.066023781184746
  endloop
endfacet
facet normal -1.1456927537598586e-17 1.0 -1.9896088108381583e-13
  outer loop
    vertex 90.96820303229744 -5.825000000000131 -7.066023781184746
    vertex 89.20741659467055 -5.825000000000131 -7.066023781184746
    vertex 89.36633521726843 -5.825000000000088 -6.858916999998199
  endloop
endfacet
facet normal -1.1456927537598586e-17 1.0 -1.9896088108381583e-13
  outer loop
    vertex 90.96820303229744 -5.825000000000131 -7.066023781184746
    vertex 89.36633521726843 -5.825000000000088 -6.858916999998199
    vertex 90.80928440969956 -5.825000000000088 -6.858916999998199
  endloop
endfacet
facet normal -1.1456927537598586e-17 1.0 -1.9896088108381583e-13
  outer loop
    vertex 90.80928440969956 -5.825000000000088 -6.858916999998199
    vertex 89.36633521726843 -5.825000000000088 -6.858916999998199
    vertex 89.46623563977306 -5.82500000000004 -6.6177360451007194
  endloop
endfacet
facet normal -1.1456927537598586e-17 1.0 -1.9896088108381583e-13
  outer loop
    vertex 90.80928440969956 -5.825000000000088 -6.858916999998199
    vertex 89.46623563977306 -5.82500000000004 -6.6177360451007194
    vertex 90.70938398719493 -5.82500000000004 -6.617736045100721
  endloop
endfacet
facet normal -1.1456927537598586e-17 1.0 -1.9896088108381583e-13
  outer loop
    vertex 90.70938398719493 -5.82500000000004 -6.617736045100721
    vertex 89.46623563977306 -5.82500000000004 -6.6177360451007194
    vertex 90.67530981348399 -5.8249999999999895 -6.3589169999982
  endloop
endfacet
facet normal -1.1456927537598586e-17 1.0 -1.9896088108381583e-13
  outer loop
    vertex 90.67530981348399 -5.8249999999999895 -6.3589169999982
    vertex 89.46623563977306 -5.82500000000004 -6.6177360451007194
    vertex 89.500309813484 -5.8249999999999895 -6.3589169999982
  endloop
endfacet
facet normal -1.1456927537598586e-17 1.0 -1.9896088108381583e-13
  outer loop
    vertex 90.67530981348399 -5.8249999999999895 -6.3589169999982
    vertex 89.500309813484 -5.8249999999999895 -6.3589169999982
    vertex 89.46623563977305 -5.824999999999939 -6.100097954895678
  endloop
endfacet
facet normal -1.1456927537598586e-17 1.0 -1.9896088108381583e-13
  outer loop
    vertex 90.67530981348399 -5.8249999999999895 -6.3589169999982
    vertex 89.46623563977305 -5.824999999999939 -6.100097954895678
    vertex 90.70938398719493 -5.824999999999939 -6.10009795489568
  endloop
endfacet
facet normal -1.1456927537598586e-17 1.0 -1.9896088108381583e-13
  outer loop
    vertex 90.70938398719493 -5.824999999999939 -6.10009795489568
    vertex 89.46623563977305 -5.824999999999939 -6.100097954895678
    vertex 90.80928440969956 -5.824999999999887 -5.8589169999982005
  endloop
endfacet
facet normal -1.1456927537598586e-17 1.0 -1.9896088108381583e-13
  outer loop
    vertex 90.80928440969956 -5.824999999999887 -5.8589169999982005
    vertex 89.46623563977305 -5.824999999999939 -6.100097954895678
    vertex 89.36633521726843 -5.824999999999887 -5.8589169999982
  endloop
endfacet
facet normal -1.1456927537598586e-17 1.0 -1.9896088108381583e-13
  outer loop
    vertex 90.80928440969956 -5.824999999999887 -5.8589169999982005
    vertex 89.36633521726843 -5.824999999999887 -5.8589169999982
    vertex 90.96820303229744 -5.824999999999848 -5.6518102188116535
  endloop
endfacet
facet normal -1.1456927537598586e-17 1.0 -1.9896088108381583e-13
  outer loop
    vertex 90.96820303229744 -5.824999999999848 -5.6518102188116535
    vertex 89.36633521726843 -5.824999999999887 -5.8589169999982
    vertex 89.20741659467055 -5.824999999999848 -5.6518102188116535
  endloop
endfacet
facet normal -1.1456927537598586e-17 1.0 -1.9896088108381583e-13
  outer loop
    vertex 90.96820303229744 -5.824999999999848 -5.6518102188116535
    vertex 89.20741659467055 -5.824999999999848 -5.6518102188116535
    vertex 91.17530981348399 -5.824999999999817 -5.492891596213763
  endloop
endfacet
facet normal -1.1456927537598586e-17 1.0 -1.9896088108381583e-13
  outer loop
    vertex 91.17530981348399 -5.824999999999817 -5.492891596213763
    vertex 89.20741659467055 -5.824999999999848 -5.6518102188116535
    vertex 89.000309813484 -5.824999999999817 -5.492891596213762
  endloop
endfacet
facet normal -1.1456927537598586e-17 1.0 -1.9896088108381583e-13
  outer loop
    vertex 91.17530981348399 -5.824999999999817 -5.492891596213763
    vertex 89.000309813484 -5.824999999999817 -5.492891596213762
    vertex 91.41649076838146 -5.824999999999798 -5.392991173709134
  endloop
endfacet
facet normal -1.1456927537598586e-17 1.0 -1.9896088108381583e-13
  outer loop
    vertex 91.41649076838146 -5.824999999999798 -5.392991173709134
    vertex 89.000309813484 -5.824999999999817 -5.492891596213762
    vertex 88.75912885858652 -5.824999999999798 -5.392991173709134
  endloop
endfacet
facet normal -1.1456927537598586e-17 1.0 -1.9896088108381583e-13
  outer loop
    vertex 91.41649076838146 -5.824999999999798 -5.392991173709134
    vertex 88.75912885858652 -5.824999999999798 -5.392991173709134
    vertex 88.500309813484 -5.824999999999789 -5.358916999998201
  endloop
endfacet
facet normal -1.1456927537598586e-17 1.0 -1.9896088108381583e-13
  outer loop
    vertex 91.41649076838146 -5.824999999999798 -5.392991173709134
    vertex 88.500309813484 -5.824999999999789 -5.358916999998201
    vertex 91.67530981348399 -5.824999999999789 -5.358916999998201
  endloop
endfacet
facet normal 0.0 1.9880763701962714e-13 1.0
  outer loop
    vertex 116.21822 -7.824999999999357 -3.183916999997798
    vertex 86.21822 -5.824999999999361 -3.1839169999981958
    vertex 86.21822 -7.824999999999357 -3.183916999997798
  endloop
endfacet
facet normal 0.0 1.9880763701962714e-13 1.0
  outer loop
    vertex 86.21822 -5.824999999999361 -3.1839169999981958
    vertex 116.21822 -7.824999999999357 -3.183916999997798
    vertex 116.21822 -5.824999999999361 -3.1839169999981958
  endloop
endfacet
facet normal 0.0 -1.0 1.9895196601282777e-13
  outer loop
    vertex 116.21822 -7.824999999999357 -3.183916999997798
    vertex 86.21822 -7.82500000000062 -9.533916999997807
    vertex 116.21822 -7.82500000000062 -9.533916999997807
  endloop
endfacet
facet normal 0.0 -1.0 1.9895196601282777e-13
  outer loop
    vertex 86.21822 -7.82500000000062 -9.533916999997807
    vertex 116.21822 -7.824999999999357 -3.183916999997798
    vertex 91.93412885858652 -7.8250000000001805 -7.324842826286869
  endloop
endfacet
facet normal 0.0 -1.0 1.9895196601282777e-13
  outer loop
    vertex 86.21822 -7.82500000000062 -9.533916999997807
    vertex 91.93412885858652 -7.8250000000001805 -7.324842826286869
    vertex 91.67530981348399 -7.825000000000186 -7.3589169999978
  endloop
endfacet
facet normal 0.0 -1.0 1.9895196601282777e-13
  outer loop
    vertex 91.93412885858652 -7.8250000000001805 -7.324842826286869
    vertex 116.21822 -7.824999999999357 -3.183916999997798
    vertex 92.17530981348399 -7.825000000000161 -7.224942403782238
  endloop
endfacet
facet normal 0.0 -1.0 1.9895196601282777e-13
  outer loop
    vertex 92.17530981348399 -7.825000000000161 -7.224942403782238
    vertex 116.21822 -7.824999999999357 -3.183916999997798
    vertex 92.38241659467054 -7.82500000000013 -7.066023781184349
  endloop
endfacet
facet normal 0.0 -1.0 1.9895196601282777e-13
  outer loop
    vertex 92.38241659467054 -7.82500000000013 -7.066023781184349
    vertex 116.21822 -7.824999999999357 -3.183916999997798
    vertex 92.54133521726843 -7.825000000000087 -6.858916999997801
  endloop
endfacet
facet normal 0.0 -1.0 1.9895196601282777e-13
  outer loop
    vertex 92.54133521726843 -7.825000000000087 -6.858916999997801
    vertex 116.21822 -7.824999999999357 -3.183916999997798
    vertex 92.64123563977306 -7.825000000000039 -6.6177360451003215
  endloop
endfacet
facet normal 0.0 -1.0 1.9895196601282777e-13
  outer loop
    vertex 92.64123563977306 -7.825000000000039 -6.6177360451003215
    vertex 116.21822 -7.824999999999357 -3.183916999997798
    vertex 92.67530981348399 -7.824999999999989 -6.358916999997802
  endloop
endfacet
facet normal 0.0 -1.0 1.9895196601282777e-13
  outer loop
    vertex 92.67530981348399 -7.824999999999989 -6.358916999997802
    vertex 116.21822 -7.824999999999357 -3.183916999997798
    vertex 92.64123563977306 -7.824999999999938 -6.10009795489528
  endloop
endfacet
facet normal 0.0 -1.0 1.9895196601282777e-13
  outer loop
    vertex 92.64123563977306 -7.824999999999938 -6.10009795489528
    vertex 116.21822 -7.824999999999357 -3.183916999997798
    vertex 92.54133521726843 -7.824999999999887 -5.858916999997802
  endloop
endfacet
facet normal 0.0 -1.0 1.9895196601282777e-13
  outer loop
    vertex 92.54133521726843 -7.824999999999887 -5.858916999997802
    vertex 116.21822 -7.824999999999357 -3.183916999997798
    vertex 92.38241659467054 -7.824999999999847 -5.651810218811255
  endloop
endfacet
facet normal 0.0 -1.0 1.9895196601282777e-13
  outer loop
    vertex 92.38241659467054 -7.824999999999847 -5.651810218811255
    vertex 116.21822 -7.824999999999357 -3.183916999997798
    vertex 92.17530981348399 -7.824999999999816 -5.492891596213363
  endloop
endfacet
facet normal 0.0 -1.0 1.9895196601282777e-13
  outer loop
    vertex 92.17530981348399 -7.824999999999816 -5.492891596213363
    vertex 116.21822 -7.824999999999357 -3.183916999997798
    vertex 91.93412885858652 -7.824999999999797 -5.392991173708735
  endloop
endfacet
facet normal 0.0 -1.0 1.9895196601282777e-13
  outer loop
    vertex 91.93412885858652 -7.824999999999797 -5.392991173708735
    vertex 116.21822 -7.824999999999357 -3.183916999997798
    vertex 91.67530981348399 -7.824999999999788 -5.3589169999978035
  endloop
endfacet
facet normal 0.0 -1.0 1.9895196601282777e-13
  outer loop
    vertex 91.67530981348399 -7.824999999999788 -5.3589169999978035
    vertex 116.21822 -7.824999999999357 -3.183916999997798
    vertex 88.500309813484 -7.824999999999788 -5.3589169999978035
  endloop
endfacet
facet normal 0.0 -1.0 1.9895196601282777e-13
  outer loop
    vertex 86.21822 -7.82500000000062 -9.533916999997807
    vertex 87.53438398719493 -7.825000000000039 -6.6177360451003215
    vertex 86.21822 -7.824999999999357 -3.183916999997798
  endloop
endfacet
facet normal 0.0 -1.0 1.9895196601282777e-13
  outer loop
    vertex 87.53438398719493 -7.825000000000039 -6.6177360451003215
    vertex 86.21822 -7.82500000000062 -9.533916999997807
    vertex 87.63428440969956 -7.825000000000087 -6.858916999997801
  endloop
endfacet
facet normal 0.0 -1.0 1.9895196601282777e-13
  outer loop
    vertex 87.63428440969956 -7.825000000000087 -6.858916999997801
    vertex 86.21822 -7.82500000000062 -9.533916999997807
    vertex 87.79320303229744 -7.82500000000013 -7.066023781184349
  endloop
endfacet
facet normal 0.0 -1.0 1.9895196601282777e-13
  outer loop
    vertex 87.79320303229744 -7.82500000000013 -7.066023781184349
    vertex 86.21822 -7.82500000000062 -9.533916999997807
    vertex 88.000309813484 -7.825000000000161 -7.224942403782238
  endloop
endfacet
facet normal 0.0 -1.0 1.9895196601282777e-13
  outer loop
    vertex 88.000309813484 -7.825000000000161 -7.224942403782238
    vertex 86.21822 -7.82500000000062 -9.533916999997807
    vertex 88.24149076838147 -7.8250000000001805 -7.324842826286869
  endloop
endfacet
facet normal 0.0 -1.0 1.9895196601282777e-13
  outer loop
    vertex 88.24149076838147 -7.8250000000001805 -7.324842826286869
    vertex 86.21822 -7.82500000000062 -9.533916999997807
    vertex 88.500309813484 -7.825000000000186 -7.3589169999978
  endloop
endfacet
facet normal 0.0 -1.0 1.9895196601282777e-13
  outer loop
    vertex 88.500309813484 -7.825000000000186 -7.3589169999978
    vertex 86.21822 -7.82500000000062 -9.533916999997807
    vertex 91.67530981348399 -7.825000000000186 -7.3589169999978
  endloop
endfacet
facet normal 0.0 -1.0 1.9895196601282777e-13
  outer loop
    vertex 86.21822 -7.824999999999357 -3.183916999997798
    vertex 87.53438398719493 -7.825000000000039 -6.6177360451003215
    vertex 87.500309813484 -7.824999999999989 -6.358916999997802
  endloop
endfacet
facet normal 0.0 -1.0 1.9895196601282777e-13
  outer loop
    vertex 86.21822 -7.824999999999357 -3.183916999997798
    vertex 87.500309813484 -7.824999999999989 -6.358916999997802
    vertex 87.53438398719491 -7.824999999999938 -6.100097954895281
  endloop
endfacet
facet normal 0.0 -1.0 1.9895196601282777e-13
  outer loop
    vertex 86.21822 -7.824999999999357 -3.183916999997798
    vertex 87.53438398719491 -7.824999999999938 -6.100097954895281
    vertex 87.63428440969956 -7.824999999999887 -5.858916999997803
  endloop
endfacet
facet normal 0.0 -1.0 1.9895196601282777e-13
  outer loop
    vertex 86.21822 -7.824999999999357 -3.183916999997798
    vertex 87.63428440969956 -7.824999999999887 -5.858916999997803
    vertex 87.79320303229744 -7.824999999999847 -5.651810218811256
  endloop
endfacet
facet normal 0.0 -1.0 1.9895196601282777e-13
  outer loop
    vertex 86.21822 -7.824999999999357 -3.183916999997798
    vertex 87.79320303229744 -7.824999999999847 -5.651810218811256
    vertex 88.000309813484 -7.824999999999816 -5.492891596213365
  endloop
endfacet
facet normal 0.0 -1.0 1.9895196601282777e-13
  outer loop
    vertex 86.21822 -7.824999999999357 -3.183916999997798
    vertex 88.000309813484 -7.824999999999816 -5.492891596213365
    vertex 88.24149076838147 -7.824999999999797 -5.392991173708735
  endloop
endfacet
facet normal 0.0 -1.0 1.9895196601282777e-13
  outer loop
    vertex 86.21822 -7.824999999999357 -3.183916999997798
    vertex 88.24149076838147 -7.824999999999797 -5.392991173708735
    vertex 88.500309813484 -7.824999999999788 -5.3589169999978035
  endloop
endfacet
facet normal 0.0 -1.0 1.9895196601282777e-13
  outer loop
    vertex 86.21822 -7.824999999999357 -3.183916999997798
    vertex 88.500309813484 -7.824999999999788 -5.3589169999978035
    vertex 116.21822 -7.824999999999357 -3.183916999997798
  endloop
endfacet
facet normal 0.0 -1.0 1.9895196601282777e-13
  outer loop
    vertex 91.41649076838146 -7.8250000000001805 -7.324842826286869
    vertex 88.500309813484 -7.825000000000186 -7.3589169999978
    vertex 91.67530981348399 -7.825000000000186 -7.3589169999978
  endloop
endfacet
facet normal 0.0 -1.0 1.9895196601282777e-13
  outer loop
    vertex 88.500309813484 -7.825000000000186 -7.3589169999978
    vertex 91.41649076838146 -7.8250000000001805 -7.324842826286869
    vertex 88.75912885858652 -7.8250000000001805 -7.324842826286869
  endloop
endfacet
facet normal 0.0 -1.0 1.9895196601282777e-13
  outer loop
    vertex 88.75912885858652 -7.8250000000001805 -7.324842826286869
    vertex 91.41649076838146 -7.8250000000001805 -7.324842826286869
    vertex 91.17530981348399 -7.825000000000161 -7.224942403782238
  endloop
endfacet
facet normal 0.0 -1.0 1.9895196601282777e-13
  outer loop
    vertex 88.75912885858652 -7.8250000000001805 -7.324842826286869
    vertex 91.17530981348399 -7.825000000000161 -7.224942403782238
    vertex 89.000309813484 -7.825000000000161 -7.224942403782238
  endloop
endfacet
facet normal 0.0 -1.0 1.9895196601282777e-13
  outer loop
    vertex 89.000309813484 -7.825000000000161 -7.224942403782238
    vertex 91.17530981348399 -7.825000000000161 -7.224942403782238
    vertex 90.96820303229744 -7.82500000000013 -7.066023781184349
  endloop
endfacet
facet normal 0.0 -1.0 1.9895196601282777e-13
  outer loop
    vertex 89.000309813484 -7.825000000000161 -7.224942403782238
    vertex 90.96820303229744 -7.82500000000013 -7.066023781184349
    vertex 89.20741659467055 -7.82500000000013 -7.066023781184349
  endloop
endfacet
facet normal 0.0 -1.0 1.9895196601282777e-13
  outer loop
    vertex 89.20741659467055 -7.82500000000013 -7.066023781184349
    vertex 90.96820303229744 -7.82500000000013 -7.066023781184349
    vertex 90.80928440969956 -7.825000000000087 -6.858916999997801
  endloop
endfacet
facet normal 0.0 -1.0 1.9895196601282777e-13
  outer loop
    vertex 89.20741659467055 -7.82500000000013 -7.066023781184349
    vertex 90.80928440969956 -7.825000000000087 -6.858916999997801
    vertex 89.36633521726843 -7.825000000000087 -6.858916999997801
  endloop
endfacet
facet normal 0.0 -1.0 1.9895196601282777e-13
  outer loop
    vertex 89.36633521726843 -7.825000000000087 -6.858916999997801
    vertex 90.80928440969956 -7.825000000000087 -6.858916999997801
    vertex 90.70938398719493 -7.825000000000039 -6.6177360451003215
  endloop
endfacet
facet normal 0.0 -1.0 1.9895196601282777e-13
  outer loop
    vertex 89.36633521726843 -7.825000000000087 -6.858916999997801
    vertex 90.70938398719493 -7.825000000000039 -6.6177360451003215
    vertex 89.46623563977306 -7.825000000000039 -6.6177360451003215
  endloop
endfacet
facet normal 0.0 -1.0 1.9895196601282777e-13
  outer loop
    vertex 89.46623563977306 -7.825000000000039 -6.6177360451003215
    vertex 90.70938398719493 -7.825000000000039 -6.6177360451003215
    vertex 90.67530981348399 -7.824999999999989 -6.358916999997802
  endloop
endfacet
facet normal 0.0 -1.0 1.9895196601282777e-13
  outer loop
    vertex 89.46623563977306 -7.825000000000039 -6.6177360451003215
    vertex 90.67530981348399 -7.824999999999989 -6.358916999997802
    vertex 89.500309813484 -7.824999999999989 -6.358916999997802
  endloop
endfacet
facet normal 0.0 -1.0 1.9895196601282777e-13
  outer loop
    vertex 89.500309813484 -7.824999999999989 -6.358916999997802
    vertex 90.67530981348399 -7.824999999999989 -6.358916999997802
    vertex 90.70938398719493 -7.824999999999938 -6.100097954895281
  endloop
endfacet
facet normal 0.0 -1.0 1.9895196601282777e-13
  outer loop
    vertex 89.500309813484 -7.824999999999989 -6.358916999997802
    vertex 90.70938398719493 -7.824999999999938 -6.100097954895281
    vertex 89.46623563977305 -7.824999999999938 -6.10009795489528
  endloop
endfacet
facet normal 0.0 -1.0 1.9895196601282777e-13
  outer loop
    vertex 89.46623563977305 -7.824999999999938 -6.10009795489528
    vertex 90.70938398719493 -7.824999999999938 -6.100097954895281
    vertex 90.80928440969956 -7.824999999999887 -5.858916999997803
  endloop
endfacet
facet normal 0.0 -1.0 1.9895196601282777e-13
  outer loop
    vertex 89.46623563977305 -7.824999999999938 -6.10009795489528
    vertex 90.80928440969956 -7.824999999999887 -5.858916999997803
    vertex 89.36633521726843 -7.824999999999887 -5.858916999997802
  endloop
endfacet
facet normal 0.0 -1.0 1.9895196601282777e-13
  outer loop
    vertex 89.36633521726843 -7.824999999999887 -5.858916999997802
    vertex 90.80928440969956 -7.824999999999887 -5.858916999997803
    vertex 90.96820303229744 -7.824999999999847 -5.651810218811256
  endloop
endfacet
facet normal 0.0 -1.0 1.9895196601282777e-13
  outer loop
    vertex 89.36633521726843 -7.824999999999887 -5.858916999997802
    vertex 90.96820303229744 -7.824999999999847 -5.651810218811256
    vertex 89.20741659467055 -7.824999999999847 -5.651810218811255
  endloop
endfacet
facet normal 0.0 -1.0 1.9895196601282777e-13
  outer loop
    vertex 89.20741659467055 -7.824999999999847 -5.651810218811255
    vertex 90.96820303229744 -7.824999999999847 -5.651810218811256
    vertex 91.17530981348399 -7.824999999999816 -5.492891596213365
  endloop
endfacet
facet normal 0.0 -1.0 1.9895196601282777e-13
  outer loop
    vertex 89.20741659467055 -7.824999999999847 -5.651810218811255
    vertex 91.17530981348399 -7.824999999999816 -5.492891596213365
    vertex 89.000309813484 -7.824999999999816 -5.492891596213363
  endloop
endfacet
facet normal 0.0 -1.0 1.9895196601282777e-13
  outer loop
    vertex 89.000309813484 -7.824999999999816 -5.492891596213363
    vertex 91.17530981348399 -7.824999999999816 -5.492891596213365
    vertex 91.41649076838146 -7.824999999999797 -5.392991173708735
  endloop
endfacet
facet normal 0.0 -1.0 1.9895196601282777e-13
  outer loop
    vertex 89.000309813484 -7.824999999999816 -5.492891596213363
    vertex 91.41649076838146 -7.824999999999797 -5.392991173708735
    vertex 88.75912885858652 -7.824999999999797 -5.392991173708735
  endloop
endfacet
facet normal 0.0 -1.0 1.9895196601282777e-13
  outer loop
    vertex 88.75912885858652 -7.824999999999797 -5.392991173708735
    vertex 91.41649076838146 -7.824999999999797 -5.392991173708735
    vertex 91.67530981348399 -7.824999999999788 -5.3589169999978035
  endloop
endfacet
facet normal 0.0 -1.0 1.9895196601282777e-13
  outer loop
    vertex 88.75912885858652 -7.824999999999797 -5.392991173708735
    vertex 91.67530981348399 -7.824999999999788 -5.3589169999978035
    vertex 88.500309813484 -7.824999999999788 -5.3589169999978035
  endloop
endfacet
facet normal -1.6812763556166757e-31 -1.9880763701962711e-13 -1.0
  outer loop
    vertex 104.21822 -5.825000000000624 -9.533916999998203
    vertex 86.21822 -7.82500000000062 -9.533916999997807
    vertex 86.21822 -5.825000000000624 -9.533916999998203
  endloop
endfacet
facet normal -1.6812763556166757e-31 -1.9880763701962711e-13 -1.0
  outer loop
    vertex 86.21822 -7.82500000000062 -9.533916999997807
    vertex 104.21822 -5.825000000000624 -9.533916999998203
    vertex 116.21822 -7.82500000000062 -9.533916999997807
  endloop
endfacet
facet normal -1.6812763556166757e-31 -1.9880763701962711e-13 -1.0
  outer loop
    vertex 116.21822 -7.82500000000062 -9.533916999997807
    vertex 104.21822 -5.825000000000624 -9.533916999998203
    vertex 116.21822 -5.825000000000624 -9.533916999998203
  endloop
endfacet
facet normal 0.9914448613738132 -2.5993260568894875e-14 -0.1305261922200309
  outer loop
    vertex 90.67530981348399 -5.8249999999999895 -6.3589169999982
    vertex 90.70938398719493 -7.824999999999938 -6.100097954895281
    vertex 90.67530981348399 -7.824999999999989 -6.358916999997802
  endloop
endfacet
facet normal 0.9914448613738132 -2.5993260568894875e-14 -0.1305261922200309
  outer loop
    vertex 90.70938398719493 -7.824999999999938 -6.100097954895281
    vertex 90.67530981348399 -5.8249999999999895 -6.3589169999982
    vertex 90.70938398719493 -5.824999999999939 -6.10009795489568
  endloop
endfacet
facet normal 0.9914448613738077 2.5993802365537714e-14 0.13052619222007303
  outer loop
    vertex 90.70938398719493 -5.82500000000004 -6.617736045100721
    vertex 90.67530981348399 -7.824999999999989 -6.358916999997802
    vertex 90.70938398719493 -7.825000000000039 -6.6177360451003215
  endloop
endfacet
facet normal 0.9914448613738077 2.5993802365537714e-14 0.13052619222007303
  outer loop
    vertex 90.67530981348399 -7.824999999999989 -6.358916999997802
    vertex 90.70938398719493 -5.82500000000004 -6.617736045100721
    vertex 90.67530981348399 -5.8249999999999895 -6.3589169999982
  endloop
endfacet
facet normal 0.9238795325112897 7.620997242217726e-14 0.3826834323650825
  outer loop
    vertex 90.80928440969956 -5.825000000000088 -6.858916999998199
    vertex 90.70938398719493 -7.825000000000039 -6.6177360451003215
    vertex 90.80928440969956 -7.825000000000087 -6.858916999997801
  endloop
endfacet
facet normal 0.9238795325112897 7.620997242217726e-14 0.3826834323650825
  outer loop
    vertex 90.70938398719493 -7.825000000000039 -6.6177360451003215
    vertex 90.80928440969956 -5.825000000000088 -6.858916999998199
    vertex 90.70938398719493 -5.82500000000004 -6.617736045100721
  endloop
endfacet
facet normal 0.7933533402912472 1.2123255880118358e-13 0.608761429008705
  outer loop
    vertex 90.96820303229744 -5.825000000000131 -7.066023781184746
    vertex 90.80928440969956 -7.825000000000087 -6.858916999997801
    vertex 90.96820303229744 -7.82500000000013 -7.066023781184349
  endloop
endfacet
facet normal 0.7933533402912472 1.2123255880118358e-13 0.608761429008705
  outer loop
    vertex 90.80928440969956 -7.825000000000087 -6.858916999997801
    vertex 90.96820303229744 -5.825000000000131 -7.066023781184746
    vertex 90.80928440969956 -5.825000000000088 -6.858916999998199
  endloop
endfacet
facet normal 0.6087614290087144 1.5799334664417092e-13 0.79335334029124
  outer loop
    vertex 91.17530981348399 -7.825000000000161 -7.224942403782238
    vertex 90.96820303229744 -5.825000000000131 -7.066023781184746
    vertex 90.96820303229744 -7.82500000000013 -7.066023781184349
  endloop
endfacet
facet normal 0.6087614290087144 1.5799334664417092e-13 0.79335334029124
  outer loop
    vertex 90.96820303229744 -5.825000000000131 -7.066023781184746
    vertex 91.17530981348399 -7.825000000000161 -7.224942403782238
    vertex 91.17530981348399 -5.825000000000161 -7.224942403782637
  endloop
endfacet
facet normal 0.38268343236509283 1.8398714900970312e-13 0.9238795325112854
  outer loop
    vertex 91.41649076838146 -7.8250000000001805 -7.324842826286869
    vertex 91.17530981348399 -5.825000000000161 -7.224942403782637
    vertex 91.17530981348399 -7.825000000000161 -7.224942403782238
  endloop
endfacet
facet normal 0.38268343236509283 1.8398714900970312e-13 0.9238795325112854
  outer loop
    vertex 91.17530981348399 -5.825000000000161 -7.224942403782637
    vertex 91.41649076838146 -7.8250000000001805 -7.324842826286869
    vertex 91.41649076838146 -5.825000000000181 -7.3248428262872665
  endloop
endfacet
facet normal 0.13052619222005077 1.9744253122336542e-13 0.9914448613738105
  outer loop
    vertex 91.67530981348399 -7.825000000000186 -7.3589169999978
    vertex 91.41649076838146 -5.825000000000181 -7.3248428262872665
    vertex 91.41649076838146 -7.8250000000001805 -7.324842826286869
  endloop
endfacet
facet normal 0.13052619222005077 1.9744253122336542e-13 0.9914448613738105
  outer loop
    vertex 91.41649076838146 -5.825000000000181 -7.3248428262872665
    vertex 91.67530981348399 -7.825000000000186 -7.3589169999978
    vertex 91.67530981348399 -5.825000000000187 -7.358916999998198
  endloop
endfacet
facet normal -0.13052619222005074 1.9744253122336542e-13 0.9914448613738105
  outer loop
    vertex 91.93412885858652 -7.8250000000001805 -7.324842826286869
    vertex 91.67530981348399 -5.825000000000187 -7.358916999998198
    vertex 91.67530981348399 -7.825000000000186 -7.3589169999978
  endloop
endfacet
facet normal -0.13052619222005074 1.9744253122336542e-13 0.9914448613738105
  outer loop
    vertex 91.67530981348399 -5.825000000000187 -7.358916999998198
    vertex 91.93412885858652 -7.8250000000001805 -7.324842826286869
    vertex 91.93412885858652 -5.825000000000181 -7.3248428262872665
  endloop
endfacet
facet normal -0.38268343236509283 1.8398714900970312e-13 0.9238795325112854
  outer loop
    vertex 92.17530981348399 -7.825000000000161 -7.224942403782238
    vertex 91.93412885858652 -5.825000000000181 -7.3248428262872665
    vertex 91.93412885858652 -7.8250000000001805 -7.324842826286869
  endloop
endfacet
facet normal -0.38268343236509283 1.8398714900970312e-13 0.9238795325112854
  outer loop
    vertex 91.93412885858652 -5.825000000000181 -7.3248428262872665
    vertex 92.17530981348399 -7.825000000000161 -7.224942403782238
    vertex 92.17530981348399 -5.825000000000161 -7.224942403782637
  endloop
endfacet
facet normal -0.6087614290087153 1.5799334664417077e-13 0.7933533402912393
  outer loop
    vertex 92.38241659467054 -7.82500000000013 -7.066023781184349
    vertex 92.17530981348399 -5.825000000000161 -7.224942403782637
    vertex 92.17530981348399 -7.825000000000161 -7.224942403782238
  endloop
endfacet
facet normal -0.6087614290087153 1.5799334664417077e-13 0.7933533402912393
  outer loop
    vertex 92.17530981348399 -5.825000000000161 -7.224942403782637
    vertex 92.38241659467054 -7.82500000000013 -7.066023781184349
    vertex 92.38241659467054 -5.825000000000131 -7.066023781184746
  endloop
endfacet
facet normal -0.7933533402912472 1.2123255880118358e-13 0.608761429008705
  outer loop
    vertex 92.54133521726843 -7.825000000000087 -6.858916999997801
    vertex 92.38241659467054 -5.825000000000131 -7.066023781184746
    vertex 92.38241659467054 -7.82500000000013 -7.066023781184349
  endloop
endfacet
facet normal -0.7933533402912472 1.2123255880118358e-13 0.608761429008705
  outer loop
    vertex 92.38241659467054 -5.825000000000131 -7.066023781184746
    vertex 92.54133521726843 -7.825000000000087 -6.858916999997801
    vertex 92.54133521726843 -5.825000000000088 -6.858916999998199
  endloop
endfacet
facet normal -0.9238795325112744 7.620997242218463e-14 0.3826834323651195
  outer loop
    vertex 92.64123563977306 -7.825000000000039 -6.6177360451003215
    vertex 92.54133521726843 -5.825000000000088 -6.858916999998199
    vertex 92.54133521726843 -7.825000000000087 -6.858916999997801
  endloop
endfacet
facet normal -0.9238795325112744 7.620997242218463e-14 0.3826834323651195
  outer loop
    vertex 92.54133521726843 -5.825000000000088 -6.858916999998199
    vertex 92.64123563977306 -7.825000000000039 -6.6177360451003215
    vertex 92.64123563977306 -5.82500000000004 -6.6177360451007194
  endloop
endfacet
facet normal -0.9914448613738132 2.5994344162163734e-14 0.1305261922200307
  outer loop
    vertex 92.67530981348399 -7.824999999999989 -6.358916999997802
    vertex 92.64123563977306 -5.82500000000004 -6.6177360451007194
    vertex 92.64123563977306 -7.825000000000039 -6.6177360451003215
  endloop
endfacet
facet normal -0.9914448613738132 2.5994344162163734e-14 0.1305261922200307
  outer loop
    vertex 92.64123563977306 -5.82500000000004 -6.6177360451007194
    vertex 92.67530981348399 -7.824999999999989 -6.358916999997802
    vertex 92.67530981348399 -5.8249999999999895 -6.3589169999982
  endloop
endfacet
facet normal -0.9914448613738077 -2.599380236553764e-14 -0.13052619222007267
  outer loop
    vertex 92.64123563977306 -7.824999999999938 -6.10009795489528
    vertex 92.67530981348399 -5.8249999999999895 -6.3589169999982
    vertex 92.67530981348399 -7.824999999999989 -6.358916999997802
  endloop
endfacet
facet normal -0.9914448613738077 -2.599380236553764e-14 -0.13052619222007267
  outer loop
    vertex 92.67530981348399 -5.8249999999999895 -6.3589169999982
    vertex 92.64123563977306 -7.824999999999938 -6.10009795489528
    vertex 92.64123563977306 -5.824999999999939 -6.100097954895678
  endloop
endfacet
facet normal -0.9238795325112895 -7.620997242217737e-14 -0.38268343236508306
  outer loop
    vertex 92.54133521726843 -7.824999999999887 -5.858916999997802
    vertex 92.64123563977306 -5.824999999999939 -6.100097954895678
    vertex 92.64123563977306 -7.824999999999938 -6.10009795489528
  endloop
endfacet
facet normal -0.9238795325112895 -7.620997242217737e-14 -0.38268343236508306
  outer loop
    vertex 92.64123563977306 -5.824999999999939 -6.100097954895678
    vertex 92.54133521726843 -7.824999999999887 -5.858916999997802
    vertex 92.54133521726843 -5.824999999999887 -5.8589169999982
  endloop
endfacet
facet normal -0.7933533402912467 -1.2123255880118373e-13 -0.6087614290087057
  outer loop
    vertex 92.38241659467054 -7.824999999999847 -5.651810218811255
    vertex 92.54133521726843 -5.824999999999887 -5.8589169999982
    vertex 92.54133521726843 -7.824999999999887 -5.858916999997802
  endloop
endfacet
facet normal -0.7933533402912467 -1.2123255880118373e-13 -0.6087614290087057
  outer loop
    vertex 92.54133521726843 -5.824999999999887 -5.8589169999982
    vertex 92.38241659467054 -7.824999999999847 -5.651810218811255
    vertex 92.38241659467054 -5.824999999999848 -5.6518102188116535
  endloop
endfacet
facet normal -0.6087614290087161 -1.5799334664417065e-13 -0.7933533402912387
  outer loop
    vertex 92.38241659467054 -5.824999999999848 -5.6518102188116535
    vertex 92.17530981348399 -7.824999999999816 -5.492891596213363
    vertex 92.17530981348399 -5.824999999999817 -5.492891596213762
  endloop
endfacet
facet normal -0.6087614290087161 -1.5799334664417065e-13 -0.7933533402912387
  outer loop
    vertex 92.17530981348399 -7.824999999999816 -5.492891596213363
    vertex 92.38241659467054 -5.824999999999848 -5.6518102188116535
    vertex 92.38241659467054 -7.824999999999847 -5.651810218811255
  endloop
endfacet
facet normal -0.3826834323650905 -1.8398714900970335e-13 -0.9238795325112865
  outer loop
    vertex 92.17530981348399 -5.824999999999817 -5.492891596213762
    vertex 91.93412885858652 -7.824999999999797 -5.392991173708735
    vertex 91.93412885858652 -5.824999999999798 -5.392991173709134
  endloop
endfacet
facet normal -0.3826834323650905 -1.8398714900970335e-13 -0.9238795325112865
  outer loop
    vertex 91.93412885858652 -7.824999999999797 -5.392991173708735
    vertex 92.17530981348399 -5.824999999999817 -5.492891596213762
    vertex 92.17530981348399 -7.824999999999816 -5.492891596213363
  endloop
endfacet
facet normal -0.13052619222005077 -1.9744253122336542e-13 -0.9914448613738105
  outer loop
    vertex 91.93412885858652 -5.824999999999798 -5.392991173709134
    vertex 91.67530981348399 -7.824999999999788 -5.3589169999978035
    vertex 91.67530981348399 -5.824999999999789 -5.358916999998201
  endloop
endfacet
facet normal -0.13052619222005077 -1.9744253122336542e-13 -0.9914448613738105
  outer loop
    vertex 91.67530981348399 -7.824999999999788 -5.3589169999978035
    vertex 91.93412885858652 -5.824999999999798 -5.392991173709134
    vertex 91.93412885858652 -7.824999999999797 -5.392991173708735
  endloop
endfacet
facet normal 0.13052619222005074 -1.9744253122336542e-13 -0.9914448613738105
  outer loop
    vertex 91.67530981348399 -5.824999999999789 -5.358916999998201
    vertex 91.41649076838146 -7.824999999999797 -5.392991173708735
    vertex 91.41649076838146 -5.824999999999798 -5.392991173709134
  endloop
endfacet
facet normal 0.13052619222005074 -1.9744253122336542e-13 -0.9914448613738105
  outer loop
    vertex 91.41649076838146 -7.824999999999797 -5.392991173708735
    vertex 91.67530981348399 -5.824999999999789 -5.358916999998201
    vertex 91.67530981348399 -7.824999999999788 -5.3589169999978035
  endloop
endfacet
facet normal 0.3826834323650951 -1.8398714900970297e-13 -0.9238795325112846
  outer loop
    vertex 91.41649076838146 -5.824999999999798 -5.392991173709134
    vertex 91.17530981348399 -7.824999999999816 -5.492891596213365
    vertex 91.17530981348399 -5.824999999999817 -5.492891596213763
  endloop
endfacet
facet normal 0.3826834323650951 -1.8398714900970297e-13 -0.9238795325112846
  outer loop
    vertex 91.17530981348399 -7.824999999999816 -5.492891596213365
    vertex 91.41649076838146 -5.824999999999798 -5.392991173709134
    vertex 91.41649076838146 -7.824999999999797 -5.392991173708735
  endloop
endfacet
facet normal 0.6087614290087145 -1.5799681500584343e-13 -0.79335334029124
  outer loop
    vertex 91.17530981348399 -5.824999999999817 -5.492891596213763
    vertex 90.96820303229744 -7.824999999999847 -5.651810218811256
    vertex 90.96820303229744 -5.824999999999848 -5.6518102188116535
  endloop
endfacet
facet normal 0.6087614290087145 -1.5799681500584343e-13 -0.79335334029124
  outer loop
    vertex 90.96820303229744 -7.824999999999847 -5.651810218811256
    vertex 91.17530981348399 -5.824999999999817 -5.492891596213763
    vertex 91.17530981348399 -7.824999999999816 -5.492891596213365
  endloop
endfacet
facet normal 0.7933533402912467 -1.2123255880118373e-13 -0.6087614290087057
  outer loop
    vertex 90.80928440969956 -5.824999999999887 -5.8589169999982005
    vertex 90.96820303229744 -7.824999999999847 -5.651810218811256
    vertex 90.80928440969956 -7.824999999999887 -5.858916999997803
  endloop
endfacet
facet normal 0.7933533402912467 -1.2123255880118373e-13 -0.6087614290087057
  outer loop
    vertex 90.96820303229744 -7.824999999999847 -5.651810218811256
    vertex 90.80928440969956 -5.824999999999887 -5.8589169999982005
    vertex 90.96820303229744 -5.824999999999848 -5.6518102188116535
  endloop
endfacet
facet normal 0.9238795325112747 -7.620997242218455e-14 -0.3826834323651191
  outer loop
    vertex 90.70938398719493 -5.824999999999939 -6.10009795489568
    vertex 90.80928440969956 -7.824999999999887 -5.858916999997803
    vertex 90.70938398719493 -7.824999999999938 -6.100097954895281
  endloop
endfacet
facet normal 0.9238795325112747 -7.620997242218455e-14 -0.3826834323651191
  outer loop
    vertex 90.80928440969956 -7.824999999999887 -5.858916999997803
    vertex 90.70938398719493 -5.824999999999939 -6.10009795489568
    vertex 90.80928440969956 -5.824999999999887 -5.8589169999982005
  endloop
endfacet
facet normal -1.0 0.0 0.0
  outer loop
    vertex 104.21822 -5.825000000000026 -6.533916999998204
    vertex 104.21822 14.174999999999379 -9.533917000002187
    vertex 104.21822 -5.825000000000624 -9.533916999998203
  endloop
endfacet
facet normal -1.0 0.0 0.0
  outer loop
    vertex 104.21822 14.174999999999379 -9.533917000002187
    vertex 104.21822 -5.825000000000026 -6.533916999998204
    vertex 104.21822 14.17499999999958 -8.533917000002187
  endloop
endfacet
facet normal 0.0 0.09950371902119712 0.9950371902099695
  outer loop
    vertex 116.21822 -5.825000000000026 -6.533916999998204
    vertex 104.21822 14.17499999999958 -8.533917000002187
    vertex 104.21822 -5.825000000000026 -6.533916999998204
  endloop
endfacet
facet normal 0.0 0.09950371902119712 0.9950371902099695
  outer loop
    vertex 104.21822 14.17499999999958 -8.533917000002187
    vertex 116.21822 -5.825000000000026 -6.533916999998204
    vertex 116.21822 14.17499999999958 -8.533917000002187
  endloop
endfacet
facet normal -3.180884385077422e-31 -1.9916013282994524e-13 -1.0
  outer loop
    vertex 116.21822 14.174999999999379 -9.533917000002187
    vertex 104.21822 -5.825000000000624 -9.533916999998203
    vertex 104.21822 14.174999999999379 -9.533917000002187
  endloop
endfacet
facet normal -3.180884385077422e-31 -1.9916013282994524e-13 -1.0
  outer loop
    vertex 104.21822 -5.825000000000624 -9.533916999998203
    vertex 116.21822 14.174999999999379 -9.533917000002187
    vertex 116.21822 -5.825000000000624 -9.533916999998203
  endloop
endfacet
facet normal 0.0 1.0 -2.002176202609008e-13
  outer loop
    vertex 104.21822 14.17499999999958 -8.533917000002187
    vertex 116.21822 14.174999999999379 -9.533917000002187
    vertex 104.21822 14.174999999999379 -9.533917000002187
  endloop
endfacet
facet normal 0.0 1.0 -2.002176202609008e-13
  outer loop
    vertex 116.21822 14.174999999999379 -9.533917000002187
    vertex 104.21822 14.17499999999958 -8.533917000002187
    vertex 116.21822 14.17499999999958 -8.533917000002187
  endloop
endfacet
endsolid flag_v3
